<svg xmlns="http://www.w3.org/2000/svg" width="500" height="218" viewBox="0 0 500 218">
    <g fill="none" fill-rule="evenodd">
        <path fill="#FAFBFC" d="M0 0h500v218H0z"/>
        <text fill="#606266" font-family="NotoSans-Regular, Noto Sans" font-size="14" transform="translate(77 97)">
            <tspan x="0" y="17">Breadcrumb 1</tspan>
        </text>
        <text fill="#606266" font-family="NotoSans-Regular, Noto Sans" font-size="14" transform="translate(77 97)">
            <tspan x="126" y="17">Breadcrumb 2</tspan>
        </text>
        <text fill="#606266" font-family="NotoSans-Regular, Noto Sans" font-size="14" transform="translate(77 97)">
            <tspan x="252" y="17">Breadcrumb 3</tspan>
        </text>
        <path fill="#F96580" fill-opacity=".2" d="M175 121h24V97h-24z"/>
        <path fill="#606266" d="M184.703 115.196l-.701-.834 5.136-5.739L184 102.83l.705-.83 5.878 6.627z"/>
        <g>
            <path d="M301 121h24V97h-24z"/>
            <path fill="#606266" d="M310.703 115.196l-.701-.834 5.136-5.739L310 102.83l.705-.83 5.878 6.627z"/>
        </g>
        <g>
            <g stroke="#25CEA5" stroke-linecap="square">
                <path d="M170.5 90v30.5M174.5 90v30.504M170.502 89.5h3.988"/>
            </g>
            <g stroke="#25CEA5" stroke-linecap="square">
                <path d="M199.5 90v30.504M203.5 90v30.5M199.502 89.5h3.988"/>
            </g>
            <text fill="#25CEA5" font-family="NotoSans-Regular, Noto Sans" font-size="12" transform="translate(163 69)">
                <tspan x="0" y="13">4px</tspan>
            </text>
            <text fill="#25CEA5" font-family="NotoSans-Regular, Noto Sans" font-size="12" transform="translate(163 69)">
                <tspan x="29" y="13">4px</tspan>
            </text>
            <g stroke="#F96580" stroke-linecap="square">
                <path d="M174.68 133.5h24.82M174.5 133.5v-8M199.5 133v-8"/>
            </g>
            <text fill="#F96580" font-family="NotoSans-Regular, Noto Sans" font-size="12" transform="translate(163 69)">
                <tspan x="11" y="86">24px</tspan>
            </text>
        </g>
    </g>
</svg>
