<svg xmlns="http://www.w3.org/2000/svg" width="500" height="586" viewBox="0 0 500 586">
    <g fill="none" fill-rule="evenodd">
        <path fill="#FAFBFC" d="M0 0h500v586H0z"/>
        <text fill="#606266" font-family="NotoSans-Regular, Noto Sans" font-size="14">
            <tspan x="16" y="31">Default / Hover / Active / Disabled</tspan>
        </text>
        <path fill="#87634D" d="M173 149h153v-48H173z"/>
        <text fill="#FFF" font-family="NotoSans-SemiBold, Noto Sans" font-size="16" font-weight="500" transform="translate(173 101)">
            <tspan x="16.397" y="29">Primary Bu</tspan> <tspan x="103.581" y="29" letter-spacing="-.033">tt</tspan> <tspan x="116.507" y="29">on</tspan>
        </text>
        <path fill="#8F6D59" d="M173 261h153v-48H173z"/>
        <g fill-rule="nonzero" stroke="#FFF" stroke-linecap="square" stroke-width="2">
            <path d="M181 213v40M181.003 253l-7.57 7.619M326 253H181"/>
        </g>
        <text fill="#FFF" font-family="NotoSans-SemiBold, Noto Sans" font-size="16" font-weight="500" transform="translate(173 213)">
            <tspan x="20.397" y="25">Primary Bu</tspan> <tspan x="107.581" y="25" letter-spacing="-.033">tt</tspan> <tspan x="120.507" y="25">on</tspan>
        </text>
        <g>
            <path fill="#76543E" d="M173 373h153v-48H173z"/>
            <text fill="#FFF" font-family="NotoSans-SemiBold, Noto Sans" font-size="16" font-weight="500" transform="translate(173 325)">
                <tspan x="16.397" y="29">Primary Bu</tspan> <tspan x="103.581" y="29" letter-spacing="-.033">tt</tspan> <tspan x="116.507" y="29">on</tspan>
            </text>
        </g>
        <g>
            <path fill="#EBECF0" d="M173 485h153v-48H173z"/>
            <text fill="#606266" font-family="NotoSans-SemiBold, Noto Sans" font-size="16" font-weight="500" opacity=".3" transform="translate(173 437)">
                <tspan x="16.397" y="29">Primary Bu</tspan> <tspan x="103.581" y="29" letter-spacing="-.033">tt</tspan> <tspan x="116.507" y="29">on</tspan>
            </text>
        </g>
    </g>
</svg>
