<svg xmlns="http://www.w3.org/2000/svg" width="500" height="338" viewBox="0 0 500 338">
    <g fill="none" fill-rule="evenodd">
        <path fill="#FAFBFC" d="M0 0h500v338H0z"/>
        <path stroke="#87634D" d="M189.5 230.5h126v-37h-126v37z"/>
        <text fill="#87634D" font-family="NotoSans-Medium, Noto Sans" font-size="12" font-weight="400" transform="translate(189 193)">
            <tspan x="12.245" y="22">Secondary Bu</tspan> <tspan x="90.761" y="22" letter-spacing="-.033">tt</tspan> <tspan x="99.887" y="22">on</tspan>
        </text>
        <path fill="#87634D" d="M194 145h112v-38H194z"/>
        <text fill="#FFF" font-family="NotoSans-Medium, Noto Sans" font-size="12" font-weight="400" transform="translate(194 107)">
            <tspan x="12.023" y="22">Primary Bu</tspan> <tspan x="75.983" y="22" letter-spacing="-.033">tt</tspan> <tspan x="85.109" y="22">on</tspan>
        </text>
        <g>
            <g stroke="#25CEA5" stroke-linecap="square">
                <path d="M186 116.5h119.5M185.502 107.5H305.5M185.5 116.505v-8.628"/>
            </g>
            <g stroke="#25CEA5" stroke-linecap="square">
                <path d="M186 144.5h119.5M185.502 135.5H305.5M185.5 144.505v-8.628"/>
            </g>
            <g stroke="#25CEA5" stroke-linecap="square">
                <path d="M194 99.573V144M206 99.5V144M194 99.5h12"/>
            </g>
            <g stroke="#25CEA5" stroke-linecap="square">
                <path d="M294 99.573V144M306 99.5V144M294 99.5h12"/>
            </g>
            <g stroke="#F96580" stroke-linecap="square">
                <path d="M320 107.5V145M311.5 145h8M319 107.5h-8"/>
            </g>
            <text fill="#F96580" font-family="NotoSans-Regular, Noto Sans" font-size="12" transform="translate(156 79)">
                <tspan x="173" y="55">38px</tspan>
            </text>
            <text fill="#25CEA5" font-family="NotoSans-Regular, Noto Sans" font-size="12" transform="translate(156 79)">
                <tspan x="30" y="13">12px</tspan>
            </text>
            <text fill="#25CEA5" font-family="NotoSans-Regular, Noto Sans" font-size="12" transform="translate(156 79)">
                <tspan x="130" y="13">12px</tspan>
            </text>
            <text fill="#25CEA5" font-family="NotoSans-Regular, Noto Sans" font-size="12" transform="translate(156 79)">
                <tspan x="0" y="39">9px</tspan>
            </text>
            <text fill="#25CEA5" font-family="NotoSans-Regular, Noto Sans" font-size="12" transform="translate(156 79)">
                <tspan x="0" y="67">9px</tspan>
            </text>
        </g>
    </g>
</svg>
