<svg xmlns="http://www.w3.org/2000/svg" xmlns:xlink="http://www.w3.org/1999/xlink" width="500" height="1138" viewBox="0 0 500 1138">
    <defs>
        <path id="b" d="M0 0h240v160H0z"/>
        <filter id="a" width="106.2%" height="109.4%" x="-3.1%" y="-4.7%" filterUnits="objectBoundingBox">
            <feOffset in="SourceAlpha" result="shadowOffsetOuter1"/>
            <feGaussianBlur in="shadowOffsetOuter1" result="shadowBlurOuter1" stdDeviation="2.5"/>
            <feColorMatrix in="shadowBlurOuter1" values="0 0 0 0 0 0 0 0 0 0 0 0 0 0 0 0 0 0 0.15 0"/>
        </filter>
        <path id="d" d="M0 0h240v160H0z"/>
        <filter id="c" width="106.2%" height="109.4%" x="-3.1%" y="-4.7%" filterUnits="objectBoundingBox">
            <feOffset in="SourceAlpha" result="shadowOffsetOuter1"/>
            <feGaussianBlur in="shadowOffsetOuter1" result="shadowBlurOuter1" stdDeviation="2.5"/>
            <feColorMatrix in="shadowBlurOuter1" values="0 0 0 0 0 0 0 0 0 0 0 0 0 0 0 0 0 0 0.15 0"/>
        </filter>
    </defs>
    <g fill="none" fill-rule="evenodd">
        <path fill="#FAFBFC" d="M0 0h500v1138H0z"/>
        <path stroke="#DCDFE6" stroke-linecap="square" d="M130 132.5h240"/>
        <path fill="#F96580" d="M338 124h24v-24h-24z" opacity=".2"/>
        <path fill="#606266" d="M349.711 115.583l-6.568-6.773.833-.808 5.74 5.917 5.793-5.919.83.812z"/>
        <text fill="#909399" font-family="NotoSans-Regular, Noto Sans" font-size="14" transform="translate(92 71)">
            <tspan x="54" y="44">Select</tspan>
        </text>
        <g stroke="#25CEA5" stroke-linecap="square">
            <path d="M130.5 92v39M145.5 92v39M131 92h14"/>
        </g>
        <g stroke="#25CEA5" stroke-linecap="square">
            <path d="M362 92v39M369.5 92v39M362.001 92H369"/>
        </g>
        <text fill="#25CEA5" font-family="NotoSans-Regular, Noto Sans" font-size="12" transform="translate(92 71)">
            <tspan x="265" y="13">8px</tspan>
        </text>
        <g stroke="#25CEA5" stroke-linecap="square">
            <path d="M121.997 131.5H369.5M121.999 123.5H369.5M122 131v-7"/>
        </g>
        <g stroke="#F96580" stroke-linecap="square">
            <path d="M381 100.501V124.5M374 100.498h6.5M374 124.5h6.5"/>
        </g>
        <text fill="#F96580" font-family="NotoSans-Regular, Noto Sans" font-size="12" transform="translate(92 71)">
            <tspan x="298" y="48">24px</tspan>
        </text>
        <text fill="#25CEA5" font-family="NotoSans-Regular, Noto Sans" font-size="12" transform="translate(92 71)">
            <tspan x="0" y="62">8px</tspan>
        </text>
        <text fill="#25CEA5" font-family="NotoSans-Regular, Noto Sans" font-size="12" transform="translate(92 71)">
            <tspan x="32" y="13">16px</tspan>
        </text>
        <text fill="#25CEA5" font-family="NotoSans-Regular, Noto Sans" font-size="12" transform="translate(92 71)">
            <tspan x="157" y="13">Varies</tspan>
        </text>
        <g stroke="#25CEA5" stroke-linecap="square">
            <path d="M188.5 92v39M338 92v39M189 92h148.93"/>
        </g>
        <g>
            <path fill="#F4F5F7" d="M130 266h240v-40H130z"/>
            <path d="M338 258h24v-24h-24z"/>
            <path fill="#606266" d="M349.711 249.583l-6.568-6.773.833-.808 5.74 5.917 5.793-5.919.83.812z"/>
            <text fill="#909399" font-family="NotoSans-Regular, Noto Sans" font-size="14" transform="translate(92 197)">
                <tspan x="54" y="52">Select</tspan>
            </text>
            <g>
                <g stroke="#25CEA5" stroke-linecap="square">
                    <path d="M130.5 218v47M145.5 218v47M131 218h14"/>
                </g>
                <g stroke="#25CEA5" stroke-linecap="square">
                    <path d="M362 218v47M369.5 218v47M362 218h6.999"/>
                </g>
                <text fill="#25CEA5" font-family="NotoSans-Regular, Noto Sans" font-size="12" transform="translate(92 197)">
                    <tspan x="265" y="13">8px</tspan>
                </text>
                <g stroke="#25CEA5" stroke-linecap="square">
                    <path d="M121.997 265.5H369.5M121.999 257.5H369.5M122 265v-7"/>
                </g>
                <g stroke="#25CEA5" stroke-linecap="square">
                    <path d="M121.997 233.5H369.5M121.999 225.5H369.5M122 233v-7"/>
                </g>
                <g stroke="#F96580" stroke-linecap="square">
                    <path d="M381 225.501V265.5M374 225.498h6.5M374 265.5h6.5"/>
                </g>
                <text fill="#F96580" font-family="NotoSans-Regular, Noto Sans" font-size="12" transform="translate(92 197)">
                    <tspan x="298" y="55">40px</tspan>
                </text>
                <text fill="#25CEA5" font-family="NotoSans-Regular, Noto Sans" font-size="12" transform="translate(92 197)">
                    <tspan x="0" y="71">8px</tspan>
                </text>
                <text fill="#25CEA5" font-family="NotoSans-Regular, Noto Sans" font-size="12" transform="translate(92 197)">
                    <tspan x="0" y="38">8px</tspan>
                </text>
                <text fill="#25CEA5" font-family="NotoSans-Regular, Noto Sans" font-size="12" transform="translate(92 197)">
                    <tspan x="32" y="13">16px</tspan>
                </text>
                <text fill="#25CEA5" font-family="NotoSans-Regular, Noto Sans" font-size="12" transform="translate(92 197)">
                    <tspan x="157" y="13">Varies</tspan>
                </text>
                <g stroke="#25CEA5" stroke-linecap="square">
                    <path d="M188.5 218v47M338 218v47M189 218h148.93"/>
                </g>
            </g>
        </g>
        <g>
            <path stroke="#87634D" d="M130.5 534.5h239v-39h-239v39z"/>
            <path d="M362 503h-24v24h24z"/>
            <path fill="#606266" d="M350.289 511.417l6.568 6.773-.833.808-5.74-5.917-5.793 5.919-.83-.812z"/>
            <text fill="#909399" font-family="NotoSans-Regular, Noto Sans" font-size="14" transform="translate(92 495)">
                <tspan x="54" y="23">Select</tspan>
            </text>
            <g transform="translate(130 543)">
                <use fill="#000" filter="url(#a)" xlink:href="#b"/>
                <use fill="#FFF" xlink:href="#b"/>
            </g>
            <path fill="#F4F5F7" d="M130 543h240v40H130z"/>
            <text fill="#303133" font-family="NotoSans-Regular, Noto Sans" font-size="14" transform="translate(130 543)">
                <tspan x="16" y="24">Option 1</tspan>
            </text>
            <path d="M130 583h240v40H130z"/>
            <text fill="#303133" font-family="NotoSans-Regular, Noto Sans" font-size="14" transform="translate(130 583)">
                <tspan x="16" y="24">Option 2</tspan>
            </text>
            <g>
                <path d="M130 623h240v40H130z"/>
                <text fill="#303133" font-family="NotoSans-Regular, Noto Sans" font-size="14" transform="translate(130 623)">
                    <tspan x="16" y="24">Option 3</tspan>
                </text>
            </g>
            <g>
                <path d="M130 663h240v40H130z"/>
                <text fill="#303133" font-family="NotoSans-Regular, Noto Sans" font-size="14" transform="translate(130 663)">
                    <tspan x="16" y="24">Option 4</tspan>
                </text>
            </g>
            <g>
                <g stroke="#25CEA5" stroke-linecap="square">
                    <path d="M121.997 542.5H369.5M121.999 534.5H369.5M122 542v-7"/>
                </g>
                <g stroke="#F96580" stroke-linecap="square">
                    <path d="M381 542.501V582.5M374 542.498h6.5M374 582.5h6.5"/>
                </g>
                <text fill="#F96580" font-family="NotoSans-Regular, Noto Sans" font-size="12" transform="translate(92 532)">
                    <tspan x="298" y="37">40px</tspan>
                </text>
                <text fill="#25CEA5" font-family="NotoSans-Regular, Noto Sans" font-size="12" transform="translate(92 532)">
                    <tspan x="0" y="13">8px</tspan>
                </text>
            </g>
        </g>
        <g>
            <path stroke="#DCDFE6" stroke-linecap="square" d="M130 401.5h240"/>
            <path d="M338 393h24v-24h-24z"/>
            <path fill="#606266" d="M349.711 384.583l-6.568-6.773.833-.808 5.74 5.917 5.793-5.919.83.812z"/>
            <path fill="#F4F5F7" fill-rule="nonzero" d="M138 365h93v32h-93z"/>
            <text fill="#303133" font-family="NotoSans-Regular, Noto Sans" font-size="14" transform="translate(138 365)">
                <tspan x="8" y="19">Option 1</tspan>
            </text>
            <path fill="#F96580" d="M211 389h16v-16h-16z" opacity=".2"/>
            <path fill="#606266" d="M223.019 377.357l-.547-.547-3.558 3.557-3.557-3.557-.547.547 3.557 3.557-3.557 3.558.547.547 3.557-3.557 3.558 3.557.547-.547-3.557-3.558z"/>
            <g>
                <g stroke="#25CEA5" stroke-linecap="square">
                    <path d="M137.5 353v47M145.5 353v47M137.507 353h8"/>
                </g>
                <g stroke="#25CEA5" stroke-linecap="square">
                    <path d="M203.5 353v47M211.5 353v47M203.507 353h8"/>
                </g>
                <g stroke="#25CEA5" stroke-linecap="square">
                    <path d="M227.5 353v47M231.5 353v47M227.507 353h4"/>
                </g>
                <g stroke="#25CEA5" stroke-linecap="square">
                    <path d="M129.997 400.5H377.5M129.999 396.5H377.5M377.5 400v-3"/>
                </g>
                <text fill="#25CEA5" font-family="NotoSans-Regular, Noto Sans" font-size="12" transform="translate(92 332)">
                    <tspan x="294" y="72">4px</tspan>
                </text>
                <text fill="#25CEA5" font-family="NotoSans-Regular, Noto Sans" font-size="12" transform="translate(92 332)">
                    <tspan x="39" y="13">8px</tspan>
                </text>
                <text fill="#25CEA5" font-family="NotoSans-Regular, Noto Sans" font-size="12" transform="translate(92 332)">
                    <tspan x="105" y="13">8px</tspan>
                </text>
                <text fill="#25CEA5" font-family="NotoSans-Regular, Noto Sans" font-size="12" transform="translate(92 332)">
                    <tspan x="129" y="13">4px</tspan>
                </text>
                <g stroke="#25CEA5" stroke-linecap="square">
                    <path d="M121.997 396.5H231M121.999 388.5H231M122 396v-7"/>
                </g>
                <g stroke="#25CEA5" stroke-linecap="square">
                    <path d="M121.997 372.5H231M121.999 364.5H231M122 372v-7"/>
                </g>
                <g stroke="#F96580" stroke-linecap="square">
                    <path d="M243 364.501V396.5M236 364.498h6.5M236 396.5h6.5"/>
                </g>
                <text fill="#F96580" font-family="NotoSans-Regular, Noto Sans" font-size="12" transform="translate(92 332)">
                    <tspan x="160" y="55">32px</tspan>
                </text>
                <text fill="#25CEA5" font-family="NotoSans-Regular, Noto Sans" font-size="12" transform="translate(92 332)">
                    <tspan x="0" y="67">8px</tspan>
                </text>
                <text fill="#25CEA5" font-family="NotoSans-Regular, Noto Sans" font-size="12" transform="translate(92 332)">
                    <tspan x="0" y="43">8px</tspan>
                </text>
            </g>
        </g>
        <g>
            <path stroke="#87634D" d="M130.5 872.5h239v-75h-239v75z"/>
            <path d="M362 823h-24v24h24z"/>
            <path fill="#606266" d="M350.289 831.417l6.568 6.773-.833.808-5.74-5.917-5.793 5.919-.83-.812z"/>
            <path fill="#F4F5F7" fill-rule="nonzero" d="M138 801h93v32h-93z"/>
            <text fill="#303133" font-family="NotoSans-Regular, Noto Sans" font-size="14" transform="translate(138 801)">
                <tspan x="8" y="19">Option 1</tspan>
            </text>
            <path d="M211 825h16v-16h-16z"/>
            <path fill="#606266" d="M223.019 813.357l-.547-.547-3.558 3.557-3.557-3.557-.547.547 3.557 3.557-3.557 3.558.547.547 3.557-3.557 3.558 3.557.547-.547-3.557-3.558z"/>
            <g>
                <path fill="#F4F5F7" fill-rule="nonzero" d="M138 837h93v32h-93z"/>
                <text fill="#303133" font-family="NotoSans-Regular, Noto Sans" font-size="14" transform="translate(138 837)">
                    <tspan x="8" y="19">Option 3</tspan>
                </text>
                <path d="M211 861h16v-16h-16z"/>
                <path fill="#606266" d="M223.019 849.357l-.547-.547-3.558 3.557-3.557-3.557-.547.547 3.557 3.557-3.557 3.558.547.547 3.557-3.557 3.558 3.557.547-.547-3.557-3.558z"/>
            </g>
            <g>
                <path fill="#F4F5F7" fill-rule="nonzero" d="M235 801h93v32h-93z"/>
                <text fill="#303133" font-family="NotoSans-Regular, Noto Sans" font-size="14" transform="translate(235 801)">
                    <tspan x="8" y="19">Option 2</tspan>
                </text>
                <path d="M308 825h16v-16h-16z"/>
                <path fill="#606266" d="M320.019 813.357l-.547-.547-3.558 3.557-3.557-3.557-.547.547 3.557 3.557-3.557 3.558.547.547 3.557-3.557 3.558 3.557.547-.547-3.557-3.558z"/>
            </g>
            <g>
                <g transform="translate(130 881)">
                    <use fill="#000" filter="url(#c)" xlink:href="#d"/>
                    <use fill="#FFF" xlink:href="#d"/>
                </g>
                <path d="M130 881h240v40H130z"/>
                <text fill="#87634D" font-family="NotoSans-SemiBold, Noto Sans" font-size="14" font-weight="500" transform="translate(130 881)">
                    <tspan x="16" y="24">Option 1</tspan>
                </text>
                <path d="M338 913h24v-24h-24z"/>
                <path fill="#87634D" d="M348.728 907.567L342 900.685l.833-.808 5.899 6.027 8.815-11.19.83.812z"/>
                <g>
                    <path d="M130 921h240v40H130z"/>
                    <text fill="#87634D" font-family="NotoSans-SemiBold, Noto Sans" font-size="14" font-weight="500" transform="translate(130 921)">
                        <tspan x="16" y="24">Option 2</tspan>
                    </text>
                    <path d="M338 953h24v-24h-24z"/>
                    <path fill="#87634D" d="M348.728 947.567L342 940.685l.833-.808 5.899 6.027 8.815-11.19.83.812z"/>
                </g>
                <g>
                    <path d="M130 961h240v40H130z"/>
                    <text fill="#87634D" font-family="NotoSans-SemiBold, Noto Sans" font-size="14" font-weight="500" transform="translate(130 961)">
                        <tspan x="16" y="24">Option 3</tspan>
                    </text>
                    <path d="M338 993h24v-24h-24z"/>
                    <path fill="#87634D" d="M348.728 987.567L342 980.685l.833-.808 5.899 6.027 8.815-11.19.83.812z"/>
                </g>
                <g>
                    <path fill="#F4F5F7" d="M130 1001h240v40H130z"/>
                    <text fill="#303133" font-family="NotoSans-Regular, Noto Sans" font-size="14" transform="translate(130 1001)">
                        <tspan x="16" y="24">Option 4</tspan>
                    </text>
                </g>
            </g>
            <g>
                <g stroke="#25CEA5" stroke-linecap="square">
                    <path d="M230.5 790v82.5M234.5 790v82.5M230.507 790h4"/>
                </g>
                <g stroke="#25CEA5" stroke-linecap="square">
                    <path d="M130.5 790v82.5M138.5 790v82.5M130.507 790h8"/>
                </g>
                <g stroke="#25CEA5" stroke-linecap="square">
                    <path d="M122.5 801.5h247M122.5 797.5h247M122.5 801v-3"/>
                </g>
                <g stroke="#25CEA5" stroke-linecap="square">
                    <path d="M122.5 872.5h247M122.5 868.5h247M122.5 872v-3"/>
                </g>
                <g stroke="#25CEA5" stroke-linecap="square">
                    <path d="M122.5 836.5h205.01M122.5 832.5h205.02M122.5 836v-3"/>
                </g>
                <text fill="#25CEA5" font-family="NotoSans-Regular, Noto Sans" font-size="12" transform="translate(93 769)">
                    <tspan x="0" y="36">4px</tspan>
                </text>
                <text fill="#25CEA5" font-family="NotoSans-Regular, Noto Sans" font-size="12" transform="translate(93 769)">
                    <tspan x="0" y="107">4px</tspan>
                </text>
                <text fill="#25CEA5" font-family="NotoSans-Regular, Noto Sans" font-size="12" transform="translate(93 769)">
                    <tspan x="0" y="71">4px</tspan>
                </text>
                <text fill="#25CEA5" font-family="NotoSans-Regular, Noto Sans" font-size="12" transform="translate(93 769)">
                    <tspan x="129" y="13">4px</tspan>
                </text>
                <text fill="#25CEA5" font-family="NotoSans-Regular, Noto Sans" font-size="12" transform="translate(93 769)">
                    <tspan x="31" y="13">8px</tspan>
                </text>
                <g stroke="#F96580" stroke-linecap="square">
                    <path d="M381 797.501V872.5M374 797.498h6.5M374 872.5h6.5"/>
                </g>
                <text fill="#F96580" font-family="NotoSans-Regular, Noto Sans" font-size="12" transform="translate(93 769)">
                    <tspan x="297" y="73">Varies</tspan>
                </text>
            </g>
        </g>
    </g>
</svg>
