<svg xmlns="http://www.w3.org/2000/svg" xmlns:xlink="http://www.w3.org/1999/xlink" width="500" height="1250" viewBox="0 0 500 1250">
    <defs>
        <path id="b" d="M0 0h240v160H0z"/>
        <filter id="a" width="106.2%" height="109.4%" x="-3.1%" y="-4.7%" filterUnits="objectBoundingBox">
            <feOffset in="SourceAlpha" result="shadowOffsetOuter1"/>
            <feGaussianBlur in="shadowOffsetOuter1" result="shadowBlurOuter1" stdDeviation="2.5"/>
            <feColorMatrix in="shadowBlurOuter1" values="0 0 0 0 0 0 0 0 0 0 0 0 0 0 0 0 0 0 0.15 0"/>
        </filter>
        <path id="d" d="M0 0h240v160H0z"/>
        <filter id="c" width="106.2%" height="109.4%" x="-3.1%" y="-4.7%" filterUnits="objectBoundingBox">
            <feOffset in="SourceAlpha" result="shadowOffsetOuter1"/>
            <feGaussianBlur in="shadowOffsetOuter1" result="shadowBlurOuter1" stdDeviation="2.5"/>
            <feColorMatrix in="shadowBlurOuter1" values="0 0 0 0 0 0 0 0 0 0 0 0 0 0 0 0 0 0 0.15 0"/>
        </filter>
    </defs>
    <g fill="none" fill-rule="evenodd">
        <path fill="#FAFBFC" d="M0 0h500v1250H0z"/>
        <path fill="#FFF" d="M98 1049h304v104H98z"/>
        <path stroke="#DCDFE6" stroke-linecap="square" d="M130 128.5h240"/>
        <path d="M338 121h24V97h-24z"/>
        <path fill="#606266" d="M349.711 112.583l-6.568-6.773.833-.808 5.74 5.917 5.793-5.919.83.812z"/>
        <text fill="#909399" font-family="NotoSans-Regular, Noto Sans" font-size="14" transform="translate(130 97)">
            <tspan x="16" y="15">Select</tspan>
        </text>
        <path fill="#F4F5F7" d="M130 233h240v-40H130z"/>
        <path d="M338 225h24v-24h-24z"/>
        <path fill="#606266" d="M349.711 216.583l-6.568-6.773.833-.808 5.74 5.917 5.793-5.919.83.812z"/>
        <text fill="#909399" font-family="NotoSans-Regular, Noto Sans" font-size="14" transform="translate(130 193)">
            <tspan x="16" y="23">Select</tspan>
        </text>
        <g>
            <path stroke="#87634D" d="M130.5 336.5h239v-39h-239v39z"/>
            <path d="M362 305h-24v24h24z"/>
            <path fill="#606266" d="M350.289 313.417l6.568 6.773-.833.808-5.74-5.917-5.793 5.919-.83-.812z"/>
            <text fill="#909399" font-family="NotoSans-Regular, Noto Sans" font-size="14" transform="translate(130 297)">
                <tspan x="16" y="23">Select</tspan>
            </text>
            <g>
                <g transform="translate(130 345)">
                    <use fill="#000" filter="url(#a)" xlink:href="#b"/>
                    <use fill="#FFF" xlink:href="#b"/>
                </g>
                <path fill="#F4F5F7" d="M130 345h240v40H130z"/>
                <text fill="#303133" font-family="NotoSans-Regular, Noto Sans" font-size="14" transform="translate(130 345)">
                    <tspan x="16" y="24">Option 1</tspan>
                </text>
                <path d="M130 385h240v40H130z"/>
                <text fill="#303133" font-family="NotoSans-Regular, Noto Sans" font-size="14" transform="translate(130 385)">
                    <tspan x="16" y="24">Option 2</tspan>
                </text>
                <g>
                    <path d="M130 425h240v40H130z"/>
                    <text fill="#303133" font-family="NotoSans-Regular, Noto Sans" font-size="14" transform="translate(130 425)">
                        <tspan x="16" y="24">Option 3</tspan>
                    </text>
                </g>
                <g>
                    <path d="M130 465h240v40H130z"/>
                    <text fill="#303133" font-family="NotoSans-Regular, Noto Sans" font-size="14" transform="translate(130 465)">
                        <tspan x="16" y="24">Option 4</tspan>
                    </text>
                </g>
            </g>
        </g>
        <g>
            <path stroke="#DCDFE6" stroke-linecap="square" d="M130 880.5h240"/>
            <path d="M338 873h24v-24h-24z"/>
            <path fill="#606266" d="M349.711 864.583l-6.568-6.773.833-.808 5.74 5.917 5.793-5.919.83.812z"/>
            <text fill="#303133" font-family="NotoSans-Regular, Noto Sans" font-size="14" transform="translate(130 841)">
                <tspan x="16" y="23">Option 1</tspan>
            </text>
        </g>
        <g>
            <path stroke="#DCDFE6" stroke-linecap="square" d="M130 984.5h240"/>
            <path d="M338 977h24v-24h-24z"/>
            <path fill="#606266" d="M349.711 968.583l-6.568-6.773.833-.808 5.74 5.917 5.793-5.919.83.812z"/>
            <g>
                <path fill="#F4F5F7" fill-rule="nonzero" d="M138 949h93v32h-93z"/>
                <text fill="#303133" font-family="NotoSans-Regular, Noto Sans" font-size="14" transform="translate(138 949)">
                    <tspan x="8" y="19">Option 1</tspan>
                </text>
                <path d="M211 973h16v-16h-16z"/>
                <path fill="#606266" d="M223.019 961.357l-.547-.547-3.558 3.557-3.557-3.557-.547.547 3.557 3.557-3.557 3.558.547.547 3.557-3.557 3.558 3.557.547-.547-3.557-3.558z"/>
            </g>
        </g>
        <g>
            <path fill="#FFF" stroke="#87634D" d="M130.5 608.5h239v-39h-239v39z"/>
            <path d="M362 577h-24v24h24z"/>
            <path fill="#606266" d="M350.289 585.417l6.568 6.773-.833.808-5.74-5.917-5.793 5.919-.83-.812z"/>
            <text fill="#303133" font-family="NotoSans-Regular, Noto Sans" font-size="14" transform="translate(130 569)">
                <tspan x="16" y="23">Option 1</tspan>
            </text>
            <g>
                <g transform="translate(130 617)">
                    <use fill="#000" filter="url(#c)" xlink:href="#d"/>
                    <use fill="#FFF" xlink:href="#d"/>
                </g>
                <path d="M130 617h240v40H130z"/>
                <text fill="#87634D" font-family="NotoSans-SemiBold, Noto Sans" font-size="14" font-weight="500" transform="translate(130 617)">
                    <tspan x="16" y="24">Option 1</tspan>
                </text>
                <path fill="#F4F5F7" d="M130 657h240v40H130z"/>
                <text fill="#303133" font-family="NotoSans-Regular, Noto Sans" font-size="14" transform="translate(130 657)">
                    <tspan x="16" y="24">Option 2</tspan>
                </text>
                <g>
                    <path d="M130 697h240v40H130z"/>
                    <text fill="#303133" font-family="NotoSans-Regular, Noto Sans" font-size="14" transform="translate(130 697)">
                        <tspan x="16" y="24">Option 3</tspan>
                    </text>
                </g>
                <g>
                    <path d="M130 737h240v40H130z"/>
                    <text fill="#303133" font-family="NotoSans-Regular, Noto Sans" font-size="14" transform="translate(130 737)">
                        <tspan x="16" y="24">Option 4</tspan>
                    </text>
                </g>
            </g>
        </g>
        <g>
            <path fill="#FAFBFC" d="M130 1121h240v-40H130z"/>
            <path stroke="#DCDFE6" stroke-linecap="square" d="M130 1120.5h240"/>
            <g opacity=".3">
                <path d="M338 1113h24v-24h-24z"/>
                <path fill="#606266" d="M349.711 1104.583l-6.568-6.773.833-.808 5.74 5.917 5.793-5.919.83.812z"/>
            </g>
            <text fill="#909399" font-family="NotoSans-Regular, Noto Sans" font-size="14" opacity=".3" transform="translate(130 1081)">
                <tspan x="16" y="23">Select</tspan>
            </text>
        </g>
    </g>
</svg>
