<svg xmlns="http://www.w3.org/2000/svg" width="500" height="300" viewBox="0 0 500 300">
    <g fill="none" fill-rule="evenodd">
        <path fill="#FAFBFC" d="M0 0h500v300H0z"/>
        <path fill="#87634D" d="M220 135h18v18h-18z"/>
        <path d="M220 153h18v-18h-18z"/>
        <path fill="#FFF" d="M228.046 148.925L223 143.764l.625-.606 4.424 4.52 6.611-8.392.623.609z"/>
        <text fill="#606266" font-family="NotoSans-Regular, Noto Sans" font-size="14" transform="translate(220 135)">
            <tspan x="26" y="15">Option A</tspan>
        </text>
        <g>
            <path stroke="#DCDFE6" d="M220.5 169.5h17v17h-17z"/>
            <text fill="#606266" font-family="NotoSans-Regular, Noto Sans" font-size="14" transform="translate(220 169)">
                <tspan x="26" y="15">Option B</tspan>
            </text>
        </g>
        <text fill="#303133" font-family="NotoSans-SemiBold, Noto Sans" font-size="14" font-weight="500">
            <tspan x="220" y="112">Heading text</tspan>
        </text>
        <g>
            <g stroke="#25CEA5" stroke-linecap="square">
                <path d="M219.5 134.5h97.004M220 118.5h96.5M316.5 134v-15.473"/>
            </g>
            <g stroke="#25CEA5" stroke-linecap="square">
                <path d="M220.5 169.5h96.004M220.5 153.5h96.007M316.5 169v-15.473"/>
            </g>
            <g stroke="#25CEA5" stroke-linecap="square">
                <path d="M237.5 119v75.499M245.515 119v75.498M238 194.5h7.383"/>
            </g>
            <text fill="#25CEA5" font-family="NotoSans-Regular, Noto Sans" font-size="12" transform="translate(171 118)">
                <tspan x="61" y="98">8px</tspan>
            </text>
            <text fill="#25CEA5" font-family="NotoSans-Regular, Noto Sans" font-size="12" transform="translate(171 118)">
                <tspan x="154" y="15">16px</tspan>
            </text>
            <text fill="#25CEA5" font-family="NotoSans-Regular, Noto Sans" font-size="12" transform="translate(171 118)">
                <tspan x="154" y="51">16px</tspan>
            </text>
            <g stroke="#F96580" stroke-linecap="square">
                <path d="M207.5 134.68v18.738M207.5 134.5h8M207.5 153.5h8"/>
            </g>
            <text fill="#F96580" font-family="NotoSans-Regular, Noto Sans" font-size="12" transform="translate(171 118)">
                <tspan x="0" y="30">18px</tspan>
            </text>
        </g>
    </g>
</svg>
