<svg xmlns="http://www.w3.org/2000/svg" width="500" height="300" viewBox="0 0 500 300">
    <g fill="none" fill-rule="evenodd">
        <path fill="#FAFBFC" d="M0 0h500v300H0z"/>
        <g fill-rule="nonzero" transform="translate(220 135)">
            <circle cx="9" cy="9" r="9" fill="#87634D"/>
            <circle cx="9" cy="9" r="3" fill="#FFF"/>
        </g>
        <text fill="#606266" font-family="NotoSans-Regular, Noto Sans" font-size="14" transform="translate(220 135)">
            <tspan x="26" y="15">Option A</tspan>
        </text>
        <circle cx="9" cy="9" r="8.5" fill-rule="nonzero" stroke="#DCDFE6" transform="translate(220 169)"/>
        <text fill="#606266" font-family="NotoSans-Regular, Noto Sans" font-size="14" transform="translate(220 169)">
            <tspan x="26" y="15">Option B</tspan>
        </text>
        <text fill="#303133" font-family="NotoSans-SemiBold, Noto Sans" font-size="14" font-weight="500">
            <tspan x="220" y="112">Heading text</tspan>
        </text>
        <g>
            <g stroke="#25CEA5" stroke-linecap="square">
                <path d="M220.5 134.5h97.004M221 118.5h96.5M317.5 134v-15.473"/>
            </g>
            <g stroke="#25CEA5" stroke-linecap="square">
                <path d="M220.5 169.5h97.004M220.5 153.5h97.007M317.5 169v-15.473"/>
            </g>
            <g stroke="#25CEA5" stroke-linecap="square">
                <path d="M237.5 119v76M245.5 119v76M238 195h7.383"/>
            </g>
            <text fill="#25CEA5" font-family="NotoSans-Regular, Noto Sans" font-size="12" transform="translate(171 118)">
                <tspan x="60" y="98">8px</tspan>
            </text>
            <text fill="#25CEA5" font-family="NotoSans-Regular, Noto Sans" font-size="12" transform="translate(171 118)">
                <tspan x="155" y="15">16px</tspan>
            </text>
            <text fill="#25CEA5" font-family="NotoSans-Regular, Noto Sans" font-size="12" transform="translate(171 118)">
                <tspan x="155" y="51">16px</tspan>
            </text>
            <g stroke="#F96580" stroke-linecap="square">
                <path d="M207.5 141.68v4.769M207.5 141.5h8M207.5 146.5h8"/>
            </g>
            <g stroke="#F96580" stroke-linecap="square">
                <path d="M207.5 169.68v16.818M207.5 169.5h8M207.5 186.5h8"/>
            </g>
            <text fill="#F96580" font-family="NotoSans-Regular, Noto Sans" font-size="12" transform="translate(171 118)">
                <tspan x="7" y="32">6px</tspan>
            </text>
            <text fill="#F96580" font-family="NotoSans-Regular, Noto Sans" font-size="12" transform="translate(171 118)">
                <tspan x="0" y="66">18px</tspan>
            </text>
        </g>
    </g>
</svg>
