<svg xmlns="http://www.w3.org/2000/svg" xmlns:xlink="http://www.w3.org/1999/xlink" width="240" height="66" viewBox="0 0 240 66">
    <defs>
        <path id="a" d="M0 65.233h239.302V.19H0z"/>
    </defs>
    <g fill="none" fill-rule="evenodd">
        <path fill="#263238" d="M101.892 64.73h13.473V.768h-13.473z"/>
        <g transform="translate(0 .576)">
            <path fill="#263238" d="M66.993 31.692c-.496-2.228-1.977-10.7-13.923-11.134-10.859-.394-14.21 8.31-14.21 8.31s-2.526-8.58-13.43-8.312c-10.96.27-13.371 8.814-13.371 8.814v-7.741H0v42.538h12.598v-21.18c-.332-11.794 6.715-11.501 8.522-11.511 7.255-.044 6.454 9.403 6.454 10.171v22.52h12.598v-22.52c0-1.336-.157-8.961 6.87-10.055 7.813-1.215 8.107 5.642 8.107 7.733v24.842h12.597v-25.2c-.132-3.132-.254-5.019-.753-7.275M202.47 21.629v21.18c-.179 2.101 1.027 11.262-8.52 11.511-8.494.22-7.444-10.614-7.444-11.868V21.629h-12.598V45.13c.312 3.041-1.762 20.108 15.071 20.101 11.527-.004 14.03-8.858 14.03-8.858v7.794h12.06v-42.54H202.47zM91.513 7.482c0 4.027-3.282 7.29-7.331 7.29-4.05 0-7.332-3.263-7.332-7.29s3.283-7.29 7.332-7.29c4.049 0 7.33 3.263 7.33 7.29"/>
            <mask id="b" fill="#fff">
                <use xlink:href="#a"/>
            </mask>
            <path fill="#263238" d="M77.873 64.168h12.599v-42.54H77.873zM91.523 7.501c0 4.038-3.29 7.31-7.35 7.31s-7.352-3.272-7.352-7.31c0-4.037 3.291-7.31 7.351-7.31 4.06 0 7.35 3.273 7.35 7.31M225.652 64.168h12.599v-42.54h-12.599zM239.302 7.501c0 4.038-3.29 7.31-7.35 7.31s-7.352-3.272-7.352-7.31c0-4.037 3.291-7.31 7.351-7.31 4.06 0 7.35 3.273 7.35 7.31M167.577 21.629H153.83l-14.081 22.64V.192h-12.495v63.963h10.828l10.621-15.338 8.889 15.338h13.325l-15.35-25.22z" mask="url(#b)"/>
        </g>
    </g>
</svg>
