<?xml version="1.0" standalone="no"?>
<!DOCTYPE svg PUBLIC "-//W3C//DTD SVG 1.1//EN" "http://www.w3.org/Graphics/SVG/1.1/DTD/svg11.dtd" >
<svg xmlns="http://www.w3.org/2000/svg">
<metadata>Generated by IcoMoon</metadata>
<defs>
<font id="icomoon" horiz-adv-x="1024">
<font-face units-per-em="1024" ascent="960" descent="-64" />
<missing-glyph horiz-adv-x="1024" />
<glyph unicode="&#x20;" horiz-adv-x="512" d="" />
<glyph unicode="&#xe900;" glyph-name="check-circle" d="M516.154 884.798c243.040 0 440.768-197.724 440.768-440.763s-197.728-440.765-440.768-440.765c-243.036 0-440.761 197.725-440.761 440.765s197.724 440.763 440.761 440.763zM516.154-61.747c278.89 0 505.782 226.896 505.782 505.782s-226.893 505.779-505.782 505.779c-278.885 0-505.776-226.892-505.776-505.779s226.892-505.782 505.776-505.782zM472.752 208.237l-231.424 210.499 46.672 45.264 176-160 289.539 349.477 46.461-45.477-327.248-399.763z" />
<glyph unicode="&#xe901;" glyph-name="check-circle-fill" d="M991.997 447.997c0-265.094-214.902-480-480-480-265.096 0-479.999 214.906-479.999 480 0 265.098 214.903 480.002 479.999 480.002 265.098 0 480-214.903 480-480.002zM472.752 208.237l-231.424 210.499 46.672 45.264 176-160 289.539 349.477 46.461-45.477-327.248-399.763z" />
<glyph unicode="&#xe903;" glyph-name="error-circle-fill" d="M991.997 448.003c0-265.098-214.902-480-480-480-265.096 0-479.999 214.902-479.999 480 0 265.096 214.903 479.999 479.999 479.999 265.098 0 480-214.903 480-479.999zM548.656 720.597h-65.014v-387.042h65.014v387.042zM516.147 166.672c31.382 0 56.822 25.44 56.822 56.816 0 31.379-25.44 56.819-56.822 56.819-31.379 0-56.816-25.44-56.816-56.819 0-31.376 25.437-56.816 56.816-56.816z" />
<glyph unicode="&#xe906;" glyph-name="warning-triangle-fill" horiz-adv-x="1144" d="M632.456 854.589c-48.188 72.282-100.391 30.118-120.471 0l-436.706-768.001c-24.094-72.282 30.118-90.353 60.235-90.353l858.353-15.059c120.471 0 100.391 80.315 75.294 120.471l-436.706 752.942zM617.192 613.174h-90.103l14.456-364.276h61.19l14.456 364.276zM572.142 198.779c-29.536 0-53.48-23.944-53.48-53.48 0-29.53 23.944-53.471 53.48-53.471 29.533 0 53.471 23.941 53.471 53.471 0 29.536-23.938 53.48-53.471 53.48z" />
<glyph unicode="&#xe90c;" glyph-name="arrow-circle-down" d="M512 1.852c-246.014 0-446.164 200.116-446.164 446.13s200.182 446.164 446.164 446.164c246.014 0 446.164-200.15 446.164-446.164s-200.15-446.164-446.164-446.164zM512 959.968c-282.294 0-511.984-229.658-511.984-511.984 0-282.294 229.658-511.984 511.984-511.984 282.294 0 511.984 229.658 511.984 511.984 0 282.294-229.658 512.016-511.984 512.016zM543.356 295.418v418.308h-65.82v-417.756l-183.596 189.298-47.228-45.802 263.636-271.832 265.936 271.702-47.034 46.028z" />
<glyph unicode="&#xe90d;" glyph-name="arrow-circle-left" d="M511.904 1.966c-246.014 0-446.164 200.116-446.164 446.13s200.182 446.164 446.164 446.164c246.014 0 446.164-200.15 446.164-446.164s-200.182-446.164-446.164-446.164zM511.904 960.082c-282.294 0-511.984-229.658-511.984-511.984 0-282.294 229.658-511.984 511.984-511.984 282.294 0 511.984 229.658 511.984 511.984 0 282.294-229.658 512.016-511.984 512.016zM549.186 666.158l-45.834 47.26-271.798-263.668 271.702-265.936 46.030 47.034-189.914 185.928h418.242v65.788h-417.724z" />
<glyph unicode="&#xe90e;" glyph-name="arrow-circle-right" d="M511.904 1.966c-246.014 0-446.164 200.116-446.164 446.13s200.15 446.164 446.164 446.164c246.014 0 446.164-200.15 446.164-446.164s-200.182-446.164-446.164-446.164zM511.904 960.082c-282.294 0-512.016-229.658-512.016-511.984 0-282.294 229.658-511.984 511.984-511.984 282.294 0 511.984 229.658 511.984 511.984 0.032 282.294-229.626 512.016-511.952 512.016zM474.524 665.348l189.914-185.93h-418.274v-65.754h417.756l-189.298-183.63 45.834-47.226 271.798 263.636-271.702 265.936z" />
<glyph unicode="&#xe90f;" glyph-name="arrow-circle-up" d="M511.904 1.966c-246.014 0-446.164 200.116-446.164 446.13s200.182 446.164 446.164 446.164c246.014 0 446.164-200.182 446.164-446.164 0-246.014-200.182-446.164-446.164-446.164zM511.904 960.082c-282.294-0.032-511.984-229.69-511.984-512.016 0-282.294 229.658-511.984 511.984-511.984 282.294 0 511.984 229.658 511.984 511.984 0 282.294-229.658 511.952-511.984 511.952zM247.618 456.746l47.032-46.028 185.93 189.914v-418.242h65.754v417.724l183.63-189.296 47.226 45.834-263.636 271.798z" />
<glyph unicode="&#xe910;" glyph-name="bell" horiz-adv-x="904" d="M806.364 212.4l-707.744-0.062c-16.576 0.018-30.008 13.45-30.026 30.024v0.002c0 8.674 2.38 16.342 13.932 25.39l0.752 0.626c52.474 43.896 87.54 120.852 104.26 228.62 11.49 74.452 9.926 138.168 9.706 145.588 0.282 140.046 114.278 253.918 254.418 253.918 69.036 0 132.782-26.3 179.558-73.984 48.122-49.062 74.61-117.692 74.61-193.24 0-30.808 1.972-92.424 15.246-158.8 18.472-92.174 51.818-160.178 99.25-202.194l2.286-1.846c2.818-2.098 12.116-10.020 12.116-24.108 0-16-12.43-29.086-28.366-29.932zM861.654 316.658c-67.972 61.208-92.236 201.442-92.236 312.622 0 92.3-32.938 176.77-92.77 237.794-58.86 59.958-138.73 93.020-224.986 93.020-175.362 0-318.008-142.646-318.008-318.038v-1.158c0.032-0.626 2.098-62.556-8.986-134.16-13.996-90.546-42.298-155.982-81.844-189.294-25.078-19.882-37.82-45.148-37.82-75.078 0.070-51.674 41.942-93.544 93.606-93.616l709.692 0.062c50.11 1.804 90.046 42.86 90.046 93.246 0 0.108 0 0.216 0 0.324v-0.018c0 41.86-26.488 66.408-36.664 74.296zM512.276 21.664c-23.23-22.636-59.706-21.98-59.8-21.98l-1.284 0.030c-36.226 0-60.74 12.712-74.924 38.918-11.74 21.666-12.18 44.802-12.18 45.022l-31.81-0.188h-31.81c0-3.756 0.532-37.572 18.378-72.324 24.828-48.246 71.604-74.89 131.81-75.048h2.568c14.276 0 64.654 2.724 102.818 39.386 27.24 26.206 41.076 62.524 41.076 107.986h-63.62c0-27.27-7.14-48.060-21.228-61.804z" />
<glyph unicode="&#xe911;" glyph-name="bookmark" horiz-adv-x="730" d="M365.028 273.914l304.154-177.576v748.424h-608.34v-748.424l304.154 177.576zM730.004-9.61l-364.974 213.062-365.034-213.062v915.22h730.008v-915.22z" />
<glyph unicode="&#xe912;" glyph-name="calendar" horiz-adv-x="868" d="M61.924 11.144v558.216h744.156v-558.216h-744.156zM61.924 631.288v123.28h744.156v-123.28h-744.156zM681.67 816.498v130.288h-61.928v-130.288h-372.642v130.288h-61.93v-130.288h-185.178v-867.282h868.014v867.282h-186.334z" />
<glyph unicode="&#xe913;" glyph-name="camera" horiz-adv-x="1034" d="M971.236 59.072h-909.476v649.010h259.476l45.976 128.814h297.1l45.436-128.814h261.452v-649.042zM755.6 772.872l-45.466 128.846h-388.576l-45.976-128.814h-278.608v-778.62h1039.054v778.62h-280.424zM516.498 204.816c-98.338 0.108-178.030 79.798-178.14 178.13v0.010c0.108 98.346 79.796 178.044 178.128 178.17h0.012c98.344-0.128 178.030-79.824 178.14-178.162v-0.010c-0.108-98.34-79.798-178.030-178.13-178.14h-0.010zM516.498 625.882c-133.948 0-242.928-108.95-242.928-242.93 0-133.914 108.982-242.896 242.928-242.896s242.928 108.95 242.928 242.896c0 133.98-108.982 242.96-242.96 242.96z" />
<glyph unicode="&#xe914;" glyph-name="check" horiz-adv-x="1056" d="M433.834 33.596l-433.838 443.788 53.722 52.104 380.338-388.556 568.442 721.47 53.502-52.36z" />
<glyph unicode="&#xe915;" glyph-name="chevron-down" horiz-adv-x="832" d="M414.182 208.932l-414.186 427.048 52.534 50.986 361.904-373.11 365.288 373.216 52.282-51.202z" />
<glyph unicode="&#xe916;" glyph-name="chevron-left" horiz-adv-x="502" d="M439.842 19.37l-439.842 430.524 439.988 426.736 52.492-54.126-384.416-372.87 384.564-376.358z" />
<glyph unicode="&#xe917;" glyph-name="chevron-right" horiz-adv-x="512" d="M53.69 10.828l-53.576 55.204 392.074 380.3-392.188 383.936 53.804 54.902 448.64-439.1z" />
<glyph unicode="&#xe918;" glyph-name="chevron-up" horiz-adv-x="828" d="M51.998 210.38l-52 50.892 415.362 424.348 411.638-424.46-52.212-50.64-359.674 370.846z" />
<glyph unicode="&#xe919;" glyph-name="closed" horiz-adv-x="768" d="M768.004 780.792l-51.212 51.21-332.792-332.792-332.792 332.792-51.21-51.212 332.792-332.792-332.792-332.792 51.21-51.212 332.792 332.792 332.792-332.792 51.212 51.212-332.792 332.792z" />
<glyph unicode="&#xe91a;" glyph-name="cloud-download" horiz-adv-x="1216" d="M611.802 324.24v313.324h-60.832v-312.846l-134.42 138.61-43.678-42.36 208.424-214.862 210.222 214.77-43.47 42.54zM979.194 82.644l-4.97-0.208h-699.88c-117.866 0.136-213.378 95.65-213.514 213.502v0.014c0 99.302 67.36 184.716 163.818 207.706l24.16 5.75-0.808 24.846c-0.104 2.712-0.17 5.938-0.18 9.178v0.044c0 149.028 121.248 270.276 270.248 270.276 101.052-0.088 189.134-55.538 235.566-137.65l0.702-1.348 16.346-29.338 27.572 19.158c23.898 16.802 53.6 26.854 85.65 26.854 0.106 0 0.212 0 0.316 0h-0.018c83.346-0.1 150.886-67.632 151.004-150.962v-0.012c0-21.944-4.642-43.17-13.772-63.048l-13.562-29.4 30.208-11.676c68.882-27.514 116.736-93.522 117.084-170.75v-0.044c0-98.794-77.298-179.116-175.972-182.918zM1216 265.53c0 0.148 0 0.322 0 0.496 0 52.030-16.398 100.228-44.308 139.712l0.51-0.76c-22.064 31.404-50.482 56.848-83.538 74.866l-1.278 0.638c5.448 17.882 8.586 38.438 8.586 59.724 0 117.014-94.778 211.89-211.756 212.046h-0.014c-0.076 0-0.168 0-0.26 0-33.794 0-65.73-7.96-94.034-22.106l1.22 0.552c-60.528 87.312-160.188 143.79-273.046 143.88h-0.014c-178.336 0-324.164-141.694-330.838-318.414-51.46-17.676-94.594-48.464-126.822-88.416l-0.412-0.526c-37.332-46.506-59.938-106.23-59.994-171.23v-0.014c0-151.274 123.072-274.318 274.346-274.318l740.594 0.208-0.448 3.504c52.74 9.456 98.41 34.796 133.058 70.812l0.076 0.078c42.302 43.616 68.376 103.178 68.376 168.83 0 0.164 0 0.328 0 0.494v-0.024z" />
<glyph unicode="&#xe91b;" glyph-name="cloud-upload" horiz-adv-x="1210" d="M371.144 419.016l43.226-42.332 135.606 138.524v-311.816h60.504v311.308l133.76-137.928 43.494 42.154-207.4 213.806zM974.37 84.35l-4.826-0.208h-696.558c-117.166 0-212.466 95.328-212.466 212.466 0 98.814 67.028 183.808 163.014 206.684l24.040 5.722-0.804 24.726c-0.104 2.7-0.17 5.908-0.18 9.132v0.042c0 148.296 120.65 268.946 268.918 268.946 100.556-0.088 188.206-55.266 234.408-136.974l0.698-1.344 16.264-29.194 27.438 19.064c23.784 16.72 53.342 26.722 85.238 26.722 0.102 0 0.204 0 0.306 0h-0.016c82.936-0.1 150.144-67.298 150.264-150.22v-0.012c0-21.836-4.618-42.958-13.704-62.738l-13.494-29.254 30.030-11.618c68.556-27.37 116.186-93.056 116.538-169.91v-0.044c0-98.308-76.92-178.236-175.11-182.018zM1210.010 266.34c0 0.148 0 0.322 0 0.494 0 51.774-16.318 99.736-44.090 139.024l0.508-0.756c-21.952 31.25-50.234 56.57-83.126 74.498l-1.27 0.632c5.422 17.796 8.542 38.25 8.542 59.43 0 116.44-94.312 210.848-210.716 211.004h-0.014c-0.102 0-0.226 0-0.35 0-33.606 0-65.362-7.91-93.512-21.966l1.212 0.55c-60.236 86.852-159.394 143.028-271.674 143.112h-0.014c-177.46 0-322.57-140.998-329.212-316.848-51.206-17.588-94.13-48.224-126.2-87.982l-0.41-0.524c-37.15-46.278-59.644-105.708-59.698-170.39v-0.014c0-150.532 122.468-272.968 273-272.968l737.072 0.208-0.476 3.486c52.446 9.432 97.856 34.644 132.314 70.464l0.074 0.078c42.094 43.406 68.040 102.678 68.040 168.012 0 0.16 0 0.318 0 0.478v-0.024z" />
<glyph unicode="&#xe91c;" glyph-name="cloud" horiz-adv-x="1216" d="M518.082 821.27c-149.034 0-270.282-121.248-270.282-270.252 0-2.694 0.060-5.656 0.18-9.25l0.838-24.85-24.19-5.75c-94.618-22.922-163.792-106.888-163.792-207.012 0-0.236 0-0.474 0-0.708v0.036c0-117.746 95.802-213.52 213.518-213.52l704.868 0.18c97.944 3.596 175.978 83.866 175.978 182.356 0 0.198 0 0.396 0 0.596v-0.032c0 75.056-47.064 143.706-117.116 170.798l-30.178 11.676 13.534 29.4c8.696 18.396 13.772 39.964 13.772 62.716 0 0.108 0 0.214 0 0.32v-0.016c-0.102 83.346-67.632 150.89-150.97 151.010h-0.012c-30.898 0-60.624-9.282-85.952-26.886l-27.572-19.16-16.346 29.342c-47.134 83.466-135.216 138.914-236.26 139.002h-0.014zM980.418 29.164h-706.066c-151.306 0-274.356 123.048-274.356 274.326 0 62.062 21.318 122.866 59.994 171.248 32.644 40.472 75.78 71.248 125.3 88.334l1.94 0.582c6.646 176.726 152.506 318.454 330.818 318.454 109.664 0 211.664-54.396 273.096-143.824 27.074 13.576 58.99 21.526 92.764 21.526 0.11 0 0.22 0 0.33 0h-0.018c116.996-0.158 211.776-95.036 211.776-212.052 0-21.288-3.138-41.842-8.974-61.228l0.388 1.5c34.318-18.658 62.728-44.104 84.268-74.728l0.518-0.776c27.402-38.724 43.802-86.926 43.802-138.956 0-0.174 0-0.35 0-0.524v0.028c0-63.47-24.25-123.646-68.35-169.3-34.79-36.168-80.574-61.54-131.964-70.736l-1.472-0.22 0.39-3.472-34.19-0.208z" />
<glyph unicode="&#xe91d;" glyph-name="cow" horiz-adv-x="1280" d="M1223.422 598.942l-231.63-51.812-126.326-151.442 0.242-291.118h-123.708l0.094 267.96h-412.906v-1.37h-0.548v-266.586h-124.042v567.428h77.656c36.48-106.062 137.636-179.97 252.232-179.97s215.778 73.938 252.258 179.97h117.338l115.326 119.474h69.216l-19.508-76.044 154.306-81.528v-34.958zM535.636 222.67c-61.808 0.054-114.864 37.472-137.812 90.884l-0.37 0.976h276.336c-23.314-54.376-76.356-91.788-138.144-91.858h-0.006zM725.876 671.966c-34.012-73.24-106.85-123.156-191.37-123.374h-0.030c-84.546 0.216-157.384 50.136-190.854 122.074l-0.546 1.302h382.796zM1135.030 744.566l26.516 103.5h-166.196l-115.326-119.472h-780.706c-18.834-0.332-53.944-10.79-67.478-47.486-6.856-15.726-68.146-165.342 0.062-334.096l52.482 21.208c-61.26 151.472-1.070 289.352-0.456 290.664l0.916 2.344c3.198 9.146 13.106 10.548 15.788 10.758h47.424v-624.054h237.206v183.324c37.67-40.168 91.070-65.19 150.32-65.19 0.034 0 0.058 0 0.090 0h-0.006c0.028 0 0.054 0 0.088 0 58.92 0 112.062 24.75 149.588 64.426l0.092 0.094v-182.65h236.962v327.268l100.574 120.876 257.048 57.512v114.412l-144.98 76.592z" />
<glyph unicode="&#xe91e;" glyph-name="edit" horiz-adv-x="1080" d="M313.23 286.606l419.762 419.734 121.248-121.248-419.762-419.734-130.574-9.384 9.326 130.634zM993.454 724.276l-97.974-97.974-121.248 121.248 97.974 97.974 121.248-121.248zM240.94 92.982l219.396 15.784 615.568 615.51-203.698 203.724-615.568-615.538-15.698-219.452zM764.846 26.344h-702.436v700.684h555.788l55.1 58.312h-669.202v-817.342h819.036v437.87l-58.312-55.1z" />
<glyph unicode="&#xe91f;" glyph-name="ellipsis-h" horiz-adv-x="928" d="M128.012 384.23c-35.198 0.054-63.718 28.574-63.77 63.766v0.004c0.056 35.188 28.552 63.698 63.732 63.77h0.004c35.21-0.036 63.748-28.56 63.802-63.766v-0.006c-0.056-35.208-28.59-63.732-63.798-63.77h-0.002zM127.98 576.014c-70.66-0.092-127.912-57.352-127.984-128.008v-0.004c0.072-70.662 57.326-127.924 127.972-128.014h0.010c70.686 0.054 127.972 57.332 128.044 128.008v0.004c-0.072 70.692-57.382 127.978-128.074 128.014h-0.004zM464 384.23c-35.198 0.054-63.718 28.574-63.77 63.766v0.004c0.056 35.198 28.574 63.718 63.766 63.77h0.004c35.198-0.056 63.718-28.574 63.77-63.766v-0.006c-0.054-35.198-28.574-63.718-63.766-63.77h-0.004zM464 576.014c-70.67-0.072-127.942-57.344-128.014-128.008v-0.004c0.072-70.672 57.344-127.942 128.008-128.014h0.004c70.672 0.072 127.942 57.344 128.014 128.008v0.004c-0.072 70.68-57.36 127.962-128.040 128.014h-0.004zM800.018 384.23c-35.21 0.034-63.748 28.562-63.802 63.766v0.004c0.054 35.21 28.59 63.732 63.798 63.77v0c35.198-0.056 63.718-28.574 63.77-63.766v-0.006c-0.054-35.198-28.574-63.718-63.766-63.77h-0.004zM800.018 576.014c-70.684-0.056-127.972-57.332-128.044-128.008v-0.004c0.072-70.682 57.36-127.962 128.042-128.014h0.004c70.658 0.092 127.91 57.352 127.984 128.008v0.004c-0.072 70.662-57.326 127.926-127.972 128.014h-0.010z" />
<glyph unicode="&#xe920;" glyph-name="ellipsis-v" horiz-adv-x="256" d="M128 852.046c35.584-0.054 64.414-28.894 64.45-64.478v-0.004c-0.038-35.586-28.866-64.426-64.442-64.48h-0.006c-35.594 0.054-64.43 28.914-64.448 64.51v0.002c0.054 35.574 28.876 64.394 64.442 64.448h0.006zM128 658.218c71.414 0.072 129.288 57.936 129.378 129.336v0.008c-0.072 71.424-57.954 129.304-129.37 129.378h-0.008c-71.412-0.074-129.288-57.936-129.378-129.336v-0.008c0.054-71.438 57.942-129.336 129.37-129.408h0.008zM128 383.552c-35.574 0.054-64.394 28.876-64.448 64.442v0.006c0.054 35.572 28.876 64.394 64.442 64.45h0.006c35.574-0.054 64.394-28.878 64.45-64.442v-0.006c-0.054-35.574-28.878-64.396-64.442-64.45h-0.006zM128 577.378c-71.436-0.072-129.324-57.972-129.378-129.404v-0.006c0.090-71.41 57.966-129.274 129.37-129.346h0.008c71.424 0.072 129.304 57.952 129.378 129.37v0.006c-0.072 71.424-57.954 129.304-129.37 129.378h-0.008zM128 43.956c-35.574 0.054-64.394 28.876-64.448 64.442v0.006c0.036 35.586 28.864 64.428 64.442 64.48h0.006c35.584-0.054 64.414-28.894 64.45-64.476v-0.004c-0.054-35.572-28.878-64.394-64.442-64.448h-0.006zM128 237.784c-71.418-0.092-129.288-57.962-129.378-129.37v-0.008c0.090-71.41 57.966-129.274 129.37-129.346h0.008c71.414 0.072 129.288 57.936 129.378 129.336v0.008c-0.054 71.438-57.942 129.336-129.37 129.408h-0.008z" />
<glyph unicode="&#xe921;" glyph-name="envelope" d="M64.070 127.708v454.834l447.93-343.468 447.93 343.468v-454.834h-895.86zM959.932 768.292v-104.998l-447.93-343.498-447.93 343.498v104.998h895.86zM0 63.636h1024v768.726h-1024v-768.726z" />
<glyph unicode="&#xe922;" glyph-name="error-circle" d="M548.656 720.597h-65.014v-387.042h65.014v387.042zM516.147 166.672c31.382 0 56.822 25.44 56.822 56.816 0 31.379-25.44 56.819-56.822 56.819-31.379 0-56.816-25.44-56.816-56.819 0-31.376 25.437-56.816 56.816-56.816zM516.154 884.798c243.040 0 440.768-197.724 440.768-440.763s-197.728-440.765-440.768-440.765c-243.036 0-440.761 197.725-440.761 440.765s197.724 440.763 440.761 440.763zM516.154-61.747c278.89 0 505.782 226.896 505.782 505.782s-226.893 505.779-505.782 505.779c-278.885 0-505.776-226.892-505.776-505.779s226.892-505.782 505.776-505.782z" />
<glyph unicode="&#xe923;" glyph-name="expand-arrows" horiz-adv-x="832" d="M831.944 624.924v238.496h-238.74v-62.372h133.826l-309-308.97-309.032 309.092h129.53v62.372h-238.496v-238.772h62.372v134.778l311.548-311.546-311.518-311.61v134.626h-62.402v-238.496h238.772v62.432h-129.682l308.938 308.97 309.092-309.092h-133.674v-62.37h238.496v238.68h-62.432v-130.604l-307.374 307.404 307.374 307.466v-130.452z" />
<glyph unicode="&#xe924;" glyph-name="eye" horiz-adv-x="1078" d="M828.876 252.878c-81.912-53.322-182.14-85.026-289.77-85.026-0.232 0-0.462 0-0.696 0h0.038c-103.384 0-203.784 29.384-290.344 84.942-76.138 49.338-137.66 115.052-180.694 192.462l-1.404 2.754c56.74 102.272 142.628 182.462 246.396 230.65l3.332 1.388c-39.2-48.3-62.938-110.534-62.938-178.312 0-0.092 0-0.178 0-0.27v0.014c0-157.378 128.048-285.452 285.452-285.452s285.452 128.076 285.452 285.452c0 0.080 0 0.17 0 0.262 0 67.892-23.818 130.218-63.552 179.086l0.41-0.524c107.362-49.544 193.466-129.844 248.902-229.546l1.404-2.754c-44.418-80.118-105.894-145.802-179.886-193.85l-2.096-1.276zM538.24 728.098c124.952 0 226.626-101.646 226.626-226.626 0-124.952-101.674-226.626-226.626-226.626s-226.626 101.674-226.626 226.626c0 124.98 101.676 226.626 226.626 226.626zM1075.852 448.696l0.608 0.29c-49.52 101.138-123.298 183.786-213.984 242.546l-2.336 1.416c-90.778 58.966-201.814 94.030-321.038 94.030-0.232 0-0.462 0-0.696-0.002h0.038c-114.676 0-226.044-32.6-322.132-94.294-93.088-60.326-166.878-143.172-214.758-241.012l-1.562-3.534 0.29-0.144-0.29-0.144c49.436-101.38 123.228-184.238 213.992-243.16l2.324-1.414c90.852-59.112 202.014-94.264 321.38-94.264 0.264 0 0.528 0 0.79 0h-0.038c114.702 0 226.134 32.626 322.218 94.38 93.568 60.072 168.376 144.724 216.348 244.75l-1.16 0.55zM538.24 386.164c63.702 0 115.338 51.636 115.338 115.338s-51.636 115.338-115.338 115.338v0c-63.702 0-115.338-51.638-115.338-115.338s51.638-115.338 115.338-115.338v0z" />
<glyph unicode="&#xe925;" glyph-name="file" horiz-adv-x="712" d="M59.134 32.526v830.946h357.314v-238.024h236.424v-592.922h-593.736zM475.58 851.338l165.618-166.756h-165.618v166.726zM488.124 922.608h-488.128v-949.216h712.006v723.822l-223.88 225.396z" />
<glyph unicode="&#xe926;" glyph-name="filter" horiz-adv-x="992" d="M432.89 154.978l123.842-85.188v439.826l362.668 372.532h-846.922l360.41-372.562v-354.608zM618.772-48.188l-247.928 170.556v362.12l-356.012 368.044c-9.188 9.68-14.84 22.8-14.84 37.234 0 0.028 0 0.054 0 0.082v-0.004c0 29.922 24.396 54.348 54.348 54.348h883.316c29.952 0 54.35-24.396 54.35-54.348 0-14.656-6.014-28.794-16.486-38.99l-356.776-366.426v-532.616z" />
<glyph unicode="&#xe927;" glyph-name="folder-open" horiz-adv-x="1228" d="M907.892 108.004h-785.826l201.282 341.316h785.86l-201.318-341.316zM67.862 787.962h347.226l138.396-138.194h399.158v-132.586h-668.038l-216.746-367.466v638.246zM1020.506 517.182v200.448h-438.934l-138.396 138.194h-443.176v-815.65h946.666l281.334 477.008h-207.494z" />
<glyph unicode="&#xe928;" glyph-name="folder" horiz-adv-x="1032" d="M64.422 133.4h903.16v515.288h-442.148l-131.35 131.19h-329.662v-646.448zM1032.004 69.006h-1032.008v775.296h420.714l131.382-131.19h479.878v-644.104z" />
<glyph unicode="&#xe929;" glyph-name="glass-milk" horiz-adv-x="1006" d="M184.144 74.482l-44.468 307.834h725.966l-44.86-307.834h-636.67zM929.644 821.48l-54.414-373.172h-745.044l-53.96 373.206h853.454zM-0.004 887.534l126.97-879.070h750.896l128.14 879.070h-1006.006z" />
<glyph unicode="&#xe92a;" glyph-name="globe" d="M663.966 28.876c27.592 42.25 49.972 99.292 66.586 169.656 3.812 16.028 7.134 31.99 10.034 47.692h168.908c-52.042-100.48-138.014-177.312-242.43-216.334l-3.096-1.014zM358.076 212.866c-1.452 4.99-3.972 16.236-6.278 27.558l-0.986 5.802h322.372c-2.182-11.076-4.592-22.216-7.232-33.358-22.802-96.1-68.052-210.668-153.954-210.668s-131.118 114.57-153.954 210.668zM114.246 246.224h169.168c2.932-15.702 6.222-31.664 10.034-47.692 16.646-70.528 39.092-127.666 66.782-169.948-63.938 23.552-118.512 59.056-163.454 104.164l-0.014 0.014c-32.498 32.436-60.022 69.836-81.342 110.974l-1.174 2.488zM366.904 869.566c-35.998-46.844-69.712-117.894-88.606-225.688h-166.692c52.676 105.486 142.614 185.802 252.164 224.716l3.132 0.972zM512 893.608c9.448-1.434 48.018-10.1 87.532-57.984 40.818-49.418 64.956-118.838 78.802-191.742h-332.7c13.846 72.906 37.984 142.324 78.834 191.776 39.514 47.854 78.052 56.52 87.5 57.954zM328.79 443.504c0 41.372 1.824 87.5 7.004 134.182h352.344c5.212-46.68 7.004-92.808 7.004-134.212-1.58-47.956-5.554-93.228-11.852-137.752l0.778 6.698h-344.166c-5.524 37.84-9.5 83.122-11.022 129.026l-0.054 2.060zM66.228 448c0 45.084 6.742 88.606 19.252 129.654h183.73c-4.154-38.992-6.522-84.234-6.522-130.028 0-1.562 0.002-3.124 0.008-4.686v0.24-0.52c0-3.356 1.042-58.082 10.392-130.24h-185.978c-13.266 40.388-20.914 86.87-20.914 135.14 0 0.156 0 0.31 0 0.466v-0.024zM957.802 448c0-47.236-7.394-92.842-21.076-135.582h-185.782c5.292 37.716 9.036 82.746 10.38 128.378l0.044 1.86v0.52c0 49.418-2.346 94.080-6.548 134.508h183.956c12.542-41.502 19.058-85.088 19.058-129.686zM912.716 643.88h-167.050c-18.928 108.022-52.774 179.136-88.802 225.948 66.74-23.326 123.736-59.778 170.36-106.576l0.014-0.014c34.020-33.948 62.586-73.344 84.278-116.774l1.168-2.584zM874.018 810.018c-92.144 92.644-219.71 149.982-360.666 149.982-0.476 0-0.952-0.002-1.426-0.002h0.072c-282.336 0-511.998-229.662-511.998-511.998 0-136.754 53.262-265.332 149.948-362.050 92.146-92.626 219.704-149.95 360.648-149.95 0.494 0 0.986 0 1.48 0.002h-0.076c282.304 0 511.998 229.662 511.998 511.998 0 136.754-53.262 265.332-149.948 362.050z" />
<glyph unicode="&#xe92b;" glyph-name="heart" horiz-adv-x="1102" d="M117.89 500.106c14.936-16.896 257.656-264.99 432.358-443.172 174.836 178.080 417.726 426.072 432.866 443.138 30.694 38.086 49.27 87.060 49.27 140.376 0 0.296 0 0.588-0.002 0.882v-0.046c-0.154 125.368-101.742 226.956-227.096 227.11h-0.014c-52.41 0-101.644-17.336-142.362-50.112-38.72-31.402-66.746-74.636-78.622-124.15l-0.314-1.554h-66.906c-12.2 51.072-40.238 94.306-78.546 125.37l-0.426 0.334c-38.262 31.208-87.63 50.114-141.412 50.114-0.322 0-0.644-0.002-0.966-0.002h0.050c-125.368-0.154-226.956-101.742-227.11-227.096v-0.014c0-51.87 16.996-100.698 49.234-141.178zM550.214-41.060l-24.466 24.972c-105.428 107.456-450.098 459.052-461.216 472.976-40.15 50.1-64.462 114.402-64.54 184.38v0.018c0 163.076 132.698 295.774 295.774 295.774 67.246 0 133.138-23.18 185.412-65.318 27.552-22.354 50.638-48.914 68.588-78.9l0.75-1.354c18.702 31.338 41.788 57.9 68.788 79.82l0.552 0.434c50.268 40.632 114.942 65.25 185.364 65.318h0.014c163.076 0 295.774-132.698 295.774-295.774-0.078-68.62-23.438-131.766-62.606-181.984l0.496 0.662-0.068-0.1-2.366-3.008c-11.15-13.956-356.26-365.552-461.758-472.976l-24.532-24.938z" />
<glyph unicode="&#xe92c;" glyph-name="image" horiz-adv-x="988" d="M61.122 140.506v614.99h864.754v-614.99h-864.754zM-0.008 79.344h987.014v737.312h-987.014v-737.312zM185.674 274.568l152.032 146.856 92.706-86.414 213.826 213.794 156.998-156.996v-128.404h-615.562v11.168zM124.512 202.24h737.884v214.91l-218.158 218.13-215.3-215.3-91.952 85.752-212.502-205.186v-98.304zM215.592 648.28c25.646 0 46.504-20.858 46.504-46.502s-20.858-46.502-46.502-46.502c-25.658 0.052-46.438 20.846-46.474 46.5v0.004c0 25.644 20.858 46.502 46.502 46.502zM215.622 494.114c59.44 0.052 107.616 48.224 107.666 107.66v0.006c-0.052 59.44-48.224 107.616-107.66 107.666h-0.006c-59.436-0.068-107.596-48.23-107.666-107.658v-0.006c0.070-59.436 48.23-107.596 107.658-107.666h0.006z" />
<glyph unicode="&#xe92d;" glyph-name="information-circle" d="M479.088 168.028h65.822v391.79h-65.822zM512 728.78c-31.772 0-57.53-25.756-57.53-57.53s25.758-57.53 57.53-57.53v0c31.772 0 57.53 25.758 57.53 57.53s-25.756 57.53-57.53 57.53v0zM512 1.822c-246.024 0-446.178 200.154-446.178 446.178s200.154 446.178 446.178 446.178c246.024 0 446.178-200.188 446.178-446.178 0-246.024-200.154-446.178-446.178-446.178zM512 960c-282.302 0-512-229.664-512-512 0-282.302 229.664-512 512-512 282.302 0 512 229.664 512 512 0 282.302-229.664 512-512 512z" />
<glyph unicode="&#xe92e;" glyph-name="lightbulb" horiz-adv-x="724" d="M565.73 405.818l-91.332-149.146h-227.862l-87.754 146.79-2.794 4.332c-47.612 72.908-82.044 125.576-82.044 200.87 0 158.592 128.998 287.59 287.56 287.59s287.562-128.998 287.562-287.56c0-76.048-36.784-132.010-83.328-202.88zM409.836-0.254h-99.084l-46.514 52.884v13.558h192.082v-13.558l-46.482-52.884zM264.236 129.968v62.96h192.082v-62.96h-192.082zM361.5 959.998c-193.714 0-351.334-157.558-351.334-351.302 0-94.284 42.842-159.848 92.43-235.772l1.79-2.73 96.074-160.76v-180.846l81.446-92.588h156.774l81.414 92.588v180.658l98.394 160.792 0.534 0.754c48.24 73.442 93.812 142.806 93.812 237.906-0.030 193.714-157.62 351.302-351.334 351.302zM358.99 834.046c-2.322 0-57.028-0.376-111.576-32.736-50.594-30.038-110.918-93.532-110.918-225.384h63.776c0 80.662 26.112 137.628 77.618 169.296 23.25 14.21 51.044 23.296 80.814 25.024l0.476 0.022-0.19 31.89v31.888z" />
<glyph unicode="&#xe92f;" glyph-name="lock-open" horiz-adv-x="1234" d="M61.34 17.236v490.1h737.6v-490.1h-737.568zM869.732 934.708c-58.014-10.818-98.292-34.296-104.274-37.952-153.678-87.294-150.446-267.138-149.87-282.88v-45.142h-615.586v-612.898h860.336v612.898h-183.32v45.776l-0.060 1.512c-0.060 1.512-6.074 156.7 119.202 227.586l1.208 0.694c1.298 0.846 135.246 82.79 268.014-9.428 1.058-0.754 109.23-77.926 106.178-206.828v-177.76h61.368v176.672c3.626 162.44-127.058 254.538-132.528 258.346-68.59 47.62-148.36 64.722-230.668 49.402zM399.454 170.914h61.398v184.438h-61.398z" />
<glyph unicode="&#xe930;" glyph-name="lock" horiz-adv-x="872" d="M62.198 11.352v496.768h747.602v-496.768h-747.602zM185.962 634.61c0 137.884 112.156 250.038 250.038 250.038s250.038-112.156 250.038-250.038v-64.254h-500.076v64.254zM748.274 570.354v64.254c0 172.184-140.086 312.274-312.274 312.274s-312.274-140.086-312.274-312.274v-64.254h-123.732v-621.236h872.010v621.236h-123.732zM404.884 166.264h62.234v186.948h-62.264z" />
<glyph unicode="&#xe931;" glyph-name="map-marker" horiz-adv-x="762" d="M373.962 460.218c-68.854 0.086-124.646 55.89-124.716 124.738v0.006c0.086 68.844 55.872 124.628 124.706 124.716h0.008c68.844-0.086 124.628-55.872 124.714-124.706v-0.008c-0.070-68.856-55.86-124.658-124.706-124.746h-0.008zM373.962 771.838c-103.182-0.104-186.8-83.722-186.906-186.894v-0.010c0.14-103.156 83.744-186.738 186.894-186.844h0.010c103.158 0.12 186.752 83.716 186.874 186.862v0.012c-0.12 103.168-83.732 186.77-186.894 186.874h-0.010zM610.726 382.918c-2.448-3.366-4.466-6.178-5.966-8.35l-233.83-330.464-232.3 332.91c-8.582 14.578-12.192 20.388-15.832 26.178l4.912-8.374c-32.21 52.096-65.554 105.994-65.554 190.146 0 83.754 32.18 162.372 90.638 221.348 55.8 56.52 133.272 91.528 218.924 91.528 0.402 0 0.802 0 1.202-0.002h-0.062c172.528 0 312.904-140.348 312.904-312.874 0-98.806-54.51-173.812-75.038-202.046zM372.86 959.998c-100.090 0-193.94-39.034-264.206-109.94-70.052-70.662-108.656-164.85-108.656-265.092 0-101.834 41.512-168.948 74.852-222.848 3.794-6.118 7.526-12.144 11.104-18.11l284.608-408.010 285.404 403.328c1.222 1.836 2.966 4.192 5.048 7.036 23.77 32.73 86.876 119.606 86.876 238.602 0 206.788-168.246 375.034-375.034 375.034z" />
<glyph unicode="&#xe932;" glyph-name="milk-drop" horiz-adv-x="754" d="M149.278 520.312c-1.506-2.168-3.494-4.908-5.902-8.222-20.18-27.83-73.848-101.678-73.848-198.928 0-169.864 138.18-308.072 308.072-308.072 82.1 0 159.022 32.014 216.636 90.142 55.154 55.558 89.24 132.096 89.24 216.596 0 0.47 0 0.938-0.004 1.406v-0.072c0 82.854-32.828 135.92-64.542 187.212 1.212-2.476-2.342 3.246-5.87 8.984l-4.884 8.544-228.682 327.77-230.218-325.36zM377.57-56.11c-203.594 0-369.242 165.648-369.242 369.242 0 117.158 62.162 202.692 85.534 234.918 2.078 2.832 3.766 5.12 5 6.928l0.302 0.452 280.696 396.68 280.184-401.738 10.932-17.8c32.828-53.096 73.698-119.146 73.698-219.406 0-98.726-37.978-191.428-106.978-261-65.972-66.86-157.586-108.274-258.876-108.274-0.428 0-0.858 0-1.286 0.002h0.068z" />
<glyph unicode="&#xe933;" glyph-name="minus" horiz-adv-x="960" d="M-0.004 413.708h960.006v68.582h-960.006z" />
<glyph unicode="&#xe934;" glyph-name="mug-milk-cold" horiz-adv-x="1030" d="M837.706 303.332h-67.13v256.368h67.13c70.76-0.090 128.096-57.436 128.168-128.194v-0.006c-0.090-70.76-57.436-128.096-128.192-128.168h-0.006zM706.414 174.818c0-52.636-19.894-88.51-60.784-109.634-19.764-10.020-42.924-16.412-67.442-17.664l-0.414-0.018h-385.892c-53.142 0-89.204 19.702-110.296 60.28-9.948 19.51-16.256 42.392-17.416 66.624l-0.016 0.38v384.914h642.26v-384.914zM127.936 752.504h224.57v-0.948l-88.476-88.35 39.312-39.344h-175.376v128.704zM672.312 663.144l-39.312-39.344h-238.906l-39.312 39.312 158.766 158.796 158.764-158.796zM837.706 623.8h-113.99l39.342 39.312-249.514 249.546-96.906-96.876v0.884h-352.834v-192.836h-63.814v-449.014c0-1.956 0.254-47.996 23.368-94.096 22.292-44.428 69.594-97.38 168.522-97.38h386.272c34.582 1.318 66.866 9.882 95.79 24.204l-1.376-0.618c44.712 22.294 98.014 69.532 98.014 167.86v64.416h67.13c106.146 0.144 192.156 86.154 192.3 192.286v0.014c-0.126 106.16-86.142 192.188-192.286 192.332h-0.014z" />
<glyph unicode="&#xe935;" glyph-name="mug-milk-hot" horiz-adv-x="1028" d="M835.244 288.934h-66.932v255.58h66.932c70.554-0.072 127.732-57.238 127.822-127.782v-0.008c0-70.458-57.332-127.79-127.822-127.79zM704.338 160.798c0-52.514-19.834-88.246-60.606-109.308-19.698-9.986-42.778-16.356-67.21-17.614l-0.414-0.018h-384.754c-52.986 0-88.97 19.644-109.972 60.1-9.93 19.448-16.232 42.264-17.396 66.424l-0.014 0.38v383.778h640.366v-383.778zM835.244 608.486h-835.246v-447.69c0-1.952 0.282-47.854 23.298-93.82 22.228-44.296 69.422-97.094 168.056-97.094h385.1c34.48 1.316 66.668 9.854 95.508 24.134l-1.374-0.616c44.58 22.226 97.722 69.326 97.722 167.364v64.226h66.932c105.846 0.126 191.62 85.89 191.764 191.718v0.014c-0.126 105.846-85.89 191.62-191.718 191.764h-0.014zM215.438 779.848c1.732-0.754 30.664-14.010 30.664-52.136v-55.222h63.972v55.222c0 65.106-44.296 100.65-70.458 111.356l-0.44 0.188c-38.568 15.144-40.046 86.138-40.046 86.862l-31.986-0.094h-31.986c0-4.628 0.85-114.598 80.282-146.176zM427.254 779.472v0zM426.342 779.976h0.032c4.28-1.984 30.916-15.804 30.916-52.262v-55.222h63.972v55.222c0 65.138-44.296 100.65-70.458 111.356l-0.41 0.188c-38.568 15.144-40.080 86.138-40.080 86.862l-31.988-0.094h-31.954c0-4.628 0.818-114.346 79.966-146.082z" />
<glyph unicode="&#xe936;" glyph-name="pen" d="M237.104 16.042l-169.176-12.128 12.096 169.24 525.288 525.256 157.080-157.080-525.288-525.288zM935.096 714.032l-128.244-128.244-157.080 157.080 128.212 128.244 157.078-157.11zM777.956 960l-758.942-758.972-18.966-265.028 264.964 19.028 758.942 759.004-245.938 245.968z" />
<glyph unicode="&#xe937;" glyph-name="plus" horiz-adv-x="960" d="M960.004 482.304h-445.734v445.7h-68.572v-445.7h-445.7v-68.572h445.7v-445.734h68.572v445.734h445.734z" />
<glyph unicode="&#xe938;" glyph-name="redo" horiz-adv-x="928" d="M582.404 561.19h345.598v346.022h-66.174v-226.25c-33.898 57.454-77.822 105.352-129.828 142.712l-1.38 0.944c-74.168 53.596-166.926 85.724-267.188 85.724-0.384 0-0.77 0-1.154-0.002h0.060c-254.924 0-462.342-207.418-462.342-462.34 0-254.956 207.418-462.342 462.342-462.342 123.486 0 239.608 48.058 326.962 135.41l-46.82 46.788c-71.294-71.67-169.988-116.028-279.042-116.028-0.388 0-0.772 0-1.158 0.002h0.060c-218.432 0-396.132 177.702-396.132 396.166 0 218.432 177.704 396.132 396.132 396.132 149.942 0 286.396-85.366 353.288-216.736h-233.222v-66.206z" />
<glyph unicode="&#xe939;" glyph-name="reply" horiz-adv-x="1092" d="M774.296 348.43c89.22-27.77 142.32-96.85 153.608-199.83 3.066-28.144 2.534-55.070 0.658-77.712 32.524 22.236 57.73 53.694 75.304 94.036 11.56 25.738 19.538 55.598 22.374 86.942l0.078 1.090 0.126 1.564c5.91 62.138-0.97 117.458-20.422 164.4-15.872 37.824-39.242 69.714-68.452 95.050l-0.316 0.268c-52.13 45.284-106.668 58.072-107.232 58.198l-2.314 0.626c-42.594 13.134-161.458 43.656-344.558 43.656-12.916 0-20.39-0.218-20.452-0.218l-32.648-0.938v173.686l-333.674-293.336 333.674-291.956v174.874l30.49 1.188c15.57 0.654 33.848 1.030 52.214 1.030h0.010c160.114 0 252.992-29.708 261.53-32.586zM842.376-33.654l14.792 57.104c0.344 1.284 14.48 58.166 7.41 119.774-8.756 76.21-45.596 124.87-109.452 144.634l-0.908 0.312c-0.814 0.25-88.532 29.302-241.422 29.302-6.38 0-12.79-0.030-19.232-0.126v-253.43l-493.57 431.87 493.57 433.872v-249.426c69.706-0.534 222.846-6.568 351.906-46.158 10.35-2.564 73.616-19.858 133.47-71.894 59.136-51.412 126.34-147.418 110.798-313.034-0.438-7.506-3.972-54.226-26.612-107.264-32.742-76.616-89.752-130.718-164.898-156.424l-55.852-19.108z" />
<glyph unicode="&#xe93a;" glyph-name="save" horiz-adv-x="864" d="M802.462 78.248h-740.926v739.472h63.536v-246.118h491.386v246.118h4.724l181.278-183.066v-556.408zM186.608 633.14v184.58h368.314v-184.58h-368.312zM646.864 879.258h-646.864v-862.548h864v643.23l-217.136 219.348zM428.97 223.158c-58.846 0.068-106.532 47.754-106.598 106.592v0.006c0 58.78 47.82 106.6 106.598 106.6 58.75 0 106.6-47.818 106.6-106.6s-47.848-106.6-106.598-106.6zM428.97 497.892c-92.808-0.104-168.014-75.3-168.136-168.094v-0.012c0.104-92.818 75.32-168.034 168.126-168.136h0.010c92.818 0.102 168.034 75.318 168.136 168.126v0.010c-0.102 92.818-75.318 168.034-168.126 168.136h-0.010z" />
<glyph unicode="&#xe93b;" glyph-name="search" horiz-adv-x="960" d="M156.586 304.302c-59.748 59.442-96.724 141.724-96.724 232.644 0 0.316 0 0.63 0 0.948v-0.048c0 88.238 34.352 171.17 96.722 233.57 59.444 59.748 141.724 96.724 232.644 96.724 0.326 0 0.652-0.002 0.978-0.002h-0.050c88.208 0 171.17-34.352 233.54-96.722 128.776-128.806 128.804-338.336 0-467.112-59.446-59.766-141.74-96.754-232.672-96.754-0.306 0-0.61 0-0.916 0h0.048c-88.238 0-171.17 34.352-233.57 96.752zM960.004 10.304l-273.61 273.638c131.428 153.11 124.622 384.768-20.358 529.778-70.216 70.594-167.42 114.284-274.828 114.284-0.37 0-0.738-0.002-1.108-0.002h0.058c-0.31 0.002-0.68 0.002-1.050 0.002-107.408 0-204.612-43.69-274.81-114.266l-0.016-0.016c-70.594-70.216-114.284-167.42-114.284-274.828 0-0.37 0.002-0.738 0.002-1.108v0.058c0-104.204 40.57-202.194 114.282-275.878 70.216-70.594 167.42-114.284 274.828-114.284 0.37 0 0.738 0 1.108 0.002h-0.058c94.158 0 183.25 33.144 253.898 93.924l273.638-273.608 42.308 42.308z" />
<glyph unicode="&#xe93c;" glyph-name="settings" d="M511.592 316.092c-72.808 0.11-131.798 59.102-131.91 131.9v0.010c0.11 72.808 59.104 131.798 131.9 131.91h0.010c72.822-0.092 131.832-59.092 131.942-131.9v-0.010c-0.11-72.818-59.12-131.818-131.932-131.91h-0.010zM511.592 645.704c-109.138-0.13-197.574-88.566-197.702-197.69v-0.012c0.13-109.138 88.566-197.574 197.69-197.704h0.012c109.15 0.11 197.606 88.556 197.736 197.69v0.012c-0.13 109.148-88.586 197.592-197.726 197.704h-0.010zM899.55 228.184c-16.322-28.23-34.048-52.646-53.982-75.054l0.398 0.454-94.74 54.332-17.646-15.346c-30.938-27.086-67.394-48.788-107.35-63.146l-2.346-0.736-22.018-7.738v-110.086c-29.4-6.086-58.768-9.066-89.072-9.066-0.052 0-0.114 0-0.174 0-32.288 0-63.782 3.408-94.14 9.884l2.942-0.526v109.73l-22.016 7.77c-41.662 14.848-77.586 36.070-108.572 62.852l0.428-0.362-17.742 15.284-94.836-55.27c-39.436 43.932-70.542 96.246-90.27 153.842l-0.942 3.16 95.484 55.626-4.176 22.73c-3.538 18.462-5.56 39.696-5.56 61.4 0 22.208 2.118 43.92 6.164 64.948l-0.342-2.144 4.306 22.956-95.452 54.72c20.424 60.872 51.328 113.326 90.956 157.842l-0.396-0.45 96.196-55.174 17.614 15.024c30.318 26.026 65.912 46.968 104.824 60.944l2.346 0.736 21.986 7.706v110.088c27.104 5.77 58.246 9.076 90.156 9.076 32.366 0 63.938-3.4 94.378-9.86l-2.958 0.526v-110.088l21.856-7.77c40.88-14.748 76.138-35.588 106.65-61.798l-0.448 0.376 18.198-15.51 93.768 57.666c39.212-43.826 70.168-95.972 89.846-153.354l0.942-3.164-94.544-55.076 4.468-22.956c3.99-19.596 6.274-42.118 6.274-65.174 0-21.448-1.976-42.436-5.756-62.79l0.326 2.11-4.178-23.118 96.034-53.554c-10.626-31.708-23.11-58.962-38.062-84.602l1.15 2.134zM912.826 399.11c1.88 14.714 2.95 31.736 2.95 49.010 0 19.164-1.318 38.018-3.872 56.478l0.242-2.138 99.046 57.698-6.638 24.348c-13.012 46.958-30.698 87.98-53.112 125.878l1.306-2.388c-23.484 39.934-50.302 74.41-80.972 105.028l-18.366 18.332-98.528-60.58c-24.9 19.010-53.246 35.664-83.52 48.7l-2.606 1v115.59l-24.38 6.54c-39.732 11.042-85.36 17.388-132.466 17.388-0.1 0-0.2 0-0.3 0h0.014c-0.072 0-0.158 0-0.244 0-46.674 0-91.894-6.228-134.876-17.894l3.598 0.832-24.478-6.476v-115.494c-31.31-13.080-60.678-30.014-87.81-50.574l-101.052 57.99-17.808-17.906c-30.812-31.024-57.71-65.996-79.856-104.074l-1.316-2.452c-20.642-35.236-37.942-75.962-49.792-118.946l-0.848-3.606-6.54-24.446 100.114-57.44c-2.092-15.508-3.288-33.434-3.288-51.638 0-17.658 1.124-35.054 3.304-52.12l-0.21 2.024-100.406-58.54 6.638-24.35c11.722-43.062 29.14-84.606 51.804-123.458 23.468-39.948 50.278-74.436 80.942-105.062l0.004-0.004 17.938-17.874 99.338 57.894c25.67-19.784 54.928-37.004 86.226-50.36l2.62-0.994v-115.106l24.38-6.54c43.062-11.528 87.746-17.386 132.75-17.386 44.488 0 87.164 5.568 130.452 17.062l24.446 6.476v115.526c34.664 14.674 64.568 32.404 91.684 53.544l-0.894-0.672 99.206-56.922 17.808 17.904c30.802 31.022 57.692 65.992 79.824 104.072l1.316 2.454c20.64 35.234 37.94 75.962 49.792 118.946l0.848 3.606 6.638 24.77-101.020 56.338z" />
<glyph unicode="&#xe93d;" glyph-name="share" horiz-adv-x="1092" d="M608.85 616.652c-183.098 0-301.964-30.522-344.558-43.656l-2.314-0.626c-8.944-2.096-221.408-55.038-196.39-317.914l0.094-1.658c0-0.312 2.22-41.592 22.454-87.938 17.576-40.342 42.812-71.802 75.304-94.036-1.876 22.64-2.408 49.566 0.658 77.742 11.258 102.948 64.388 172.028 153.61 199.828 8.536 2.816 101.448 32.554 261.53 32.554 17.168 0 34.712-0.344 52.226-1.032l30.52-1.188v-174.874l333.674 291.988-333.674 293.302v-173.654l-32.68 0.938c-0.094 0-7.538 0.218-20.452 0.218zM249.408-33.592l-55.634 18.982c-75.148 25.706-132.156 79.774-164.898 156.392-22.64 53.068-26.206 99.822-26.612 107.326-15.542 165.618 51.662 261.622 110.796 313.036 59.854 52.036 123.118 69.332 133.47 71.894 129.060 39.56 282.2 45.656 351.906 46.158v249.396l493.57-433.87-493.568-431.87v253.43c-5.24 0.080-11.424 0.126-17.618 0.126-0.558 0-1.114 0-1.67 0h0.086c-154.078 0-240.608-29.020-241.452-29.302l-0.906-0.312c-63.858-19.764-100.698-68.424-109.454-144.634-7.13-61.982 7.254-119.24 7.412-119.774l14.574-56.978z" />
<glyph unicode="&#xe93e;" glyph-name="sign-in" horiz-adv-x="1076" d="M376.826 810.216l-46.778-47.8 289.528-283.44h-619.582v-66.86h619.022l-288.87-280.178 46.548-48.030 372.816 361.558zM673.958 849.028v-66.86h335.188v-668.336h-335.188v-66.86h402.048v802.056z" />
<glyph unicode="&#xe93f;" glyph-name="sign-out" horiz-adv-x="1076" d="M693.382 821.736l-48.030-49.112 297.278-290.99h-636.13v-68.65h635.59l-296.634-287.678 47.828-49.314 382.726 371.234zM68.676 791.112h344.158v68.65h-412.844v-823.524h412.844v68.65h-344.158z" />
<glyph unicode="&#xe940;" glyph-name="smile" d="M512 1.852c-246.014 0-446.164 200.116-446.164 446.13s200.182 446.164 446.164 446.164c246.014 0 446.164-200.15 446.164-446.164s-200.15-446.164-446.164-446.164zM512 959.968c-282.294 0-511.984-229.658-511.984-511.984 0-282.294 229.658-511.984 511.984-511.984 282.294 0 511.984 229.658 511.984 511.984 0 282.294-229.658 512.016-511.984 512.016zM512 218.618c-85.216 0.116-159.558 46.562-199.2 115.494l-0.592 1.118-57.3-32.392c51.772-90.14 147.438-149.902 257.074-150.038h0.018c0.336 0 0.732-0.002 1.13-0.002 106.154 0 199.13 56.404 250.6 140.876l0.732 1.294-56.232 34.14c-40.58-66.654-112.846-110.49-195.35-110.49-0.308 0-0.616 0-0.926 0.002h0.048zM346.802 481.866c36.002 0 65.188 29.186 65.188 65.188s-29.186 65.188-65.188 65.188v0c-36.002 0-65.188-29.186-65.188-65.188s29.186-65.188 65.188-65.188v0zM677.36 481.866c36.002 0 65.188 29.186 65.188 65.188s-29.186 65.188-65.188 65.188v0c-36.002 0-65.188-29.186-65.188-65.188s29.186-65.188 65.188-65.188v0z" />
<glyph unicode="&#xe941;" glyph-name="sprout" horiz-adv-x="1028" d="M859.054 552.058c-67.604-74.75-167.020-115.356-295.826-120.918-0.744 60.942 8.504 202.39 100.646 305.332 67.604 75.524 167.86 116.522 298.252 122.146 0.194-61.494-10.28-204.008-103.072-306.56zM487.25 298.034c-123.276 0-405.396 39.67-420.916 399.026h2.91c55.286 0 161.848-8.568 254.54-66.214 106.272-66.084 163.368-177.918 170.060-332.748l-6.628-0.064zM1026.336 895.54l-3.072 29.42h-29.616c-165.34 0-292.724-48.658-378.69-144.648-70.772-79.016-99.708-174.974-110.96-251.532-1.068 2.102-2.134 4.268-3.234 6.336-33.936 62.85-82.196 114.062-140.612 150.526l-1.676 0.976c-106.562 66.278-226.962 76.14-289.23 76.14-24.15 0-39.152-1.52-39.768-1.586l-29.486-3.040v-29.616c0-104.106 19.592-194.116 58.228-267.474 33.246-62.79 80.784-114.056 138.486-150.776l1.604-0.954c105.818-66.956 226.444-76.948 288.908-76.948 3.168 0 6.208 0 9.052 0.064v-261.394h65.728v394.306c149.174 5.626 265.534 53.668 346.166 143.064 140.284 155.51 119.138 377.69 118.17 387.13z" />
<glyph unicode="&#xe942;" glyph-name="star" horiz-adv-x="1118" d="M559.002 182.328l248.784-130.828-47.486 277.086 201.268 196.168-278.174 40.428-124.392 252.050-124.392-252.050-278.174-40.428 201.298-196.198-47.518-277.052 248.784 130.83zM891.75-63.97l-332.75 174.896-332.688-174.926 63.534 370.502-269.186 262.376 371.996 54.048 166.374 337.072 166.342-337.104 371.964-54.018-269.154-262.376 63.534-370.502z" />
<glyph unicode="&#xe943;" glyph-name="sticky-note" horiz-adv-x="864" d="M775.49 262.578l-157.668-157.482v157.482h157.638zM62.876 817.094h738.188v-491.608h-246.176v-246.58h-491.98v738.188zM0 880v-864h617.638l246.362 246.114v617.884h-864z" />
<glyph unicode="&#xe944;" glyph-name="sync" horiz-adv-x="928" d="M462.338 846.544c149.91 0 286.396-85.366 353.256-216.736h-233.188v-66.206h345.598v346.022h-66.206v-226.25c-33.898 57.442-77.824 105.33-129.826 142.68l-1.38 0.944c-74.18 53.616-166.958 85.758-267.242 85.758-0.354 0-0.708 0-1.060 0h0.054c-254.986 0-462.34-207.45-462.34-462.34h66.174c0 218.43 177.736 396.132 396.164 396.132zM861.794 445.62c0-218.462-177.702-396.198-396.132-396.198-149.944 0-286.396 85.432-353.254 216.77h233.19v66.206h-345.598v-346.022h66.174v226.25c33.9-57.442 77.826-105.328 129.826-142.678l1.382-0.942c74.178-53.616 166.952-85.756 267.23-85.756 0.368 0 0.738 0 1.106 0h-0.058c254.922 0 462.34 207.418 462.34 462.34h-66.206z" />
<glyph unicode="&#xe945;" glyph-name="trash" horiz-adv-x="896" d="M126.616 32.86v701.27h640.192v-701.27h-640.192zM315.476 863.138h264.326l36.698-65.162h-338.884l37.86 65.162zM896.004 797.974h-206.234l-72.64 129.006h-338.382l-74.934-129.006h-203.814v-63.842h62.774v-765.114h767.88v765.114h65.35v63.844zM254.712 159.322h63.844v445.428h-63.844zM416.078 159.322h63.844v445.428h-63.876zM576.534 159.322h63.842v445.428h-63.842z" />
<glyph unicode="&#xe946;" glyph-name="tree-broadleaf" d="M831.674 258.76h-639.314c-70.416 0.072-127.478 57.134-127.55 127.542v0.006c-0.002 0.138-0.002 0.302-0.002 0.466 0 56.792 37.292 104.876 88.724 121.096l0.9 0.246 35.698 11.106-16.626 33.502c-8.25 16.428-13.082 35.796-13.082 56.296 0 70.514 57.162 127.674 127.674 127.674 18.822 0 36.694-4.074 52.78-11.386l-0.8 0.326 49.596-22.336-4.706 54.176c-0.31 3.336-0.486 7.216-0.486 11.136 0 70.452 57.062 127.576 127.492 127.674h0.010c70.442-0.094 127.512-57.218 127.512-127.674 0-3.83-0.168-7.624-0.5-11.37l0.034 0.486-4.61-53.674 49.25 21.866c15.13 6.826 32.798 10.802 51.398 10.802 70.514 0 127.674-57.162 127.674-127.674 0-20.434-4.8-39.748-13.336-56.872l0.336 0.74-16.626-33.66 35.888-10.98c52.634-16.242 90.22-64.458 90.22-121.452 0-0.18 0-0.36 0-0.54v0.028c-0.072-70.414-57.134-127.478-127.542-127.548h-0.006zM599.632-0.29h-175.324l45.862 195.308h83.632l45.798-195.308zM984.664 501.122c-17.408 22.904-39.262 41.488-64.38 54.704l-1.058 0.508c4.702 15.8 7.408 33.956 7.408 52.746 0 105.752-85.728 191.48-191.48 191.48-12.044 0-23.828-1.112-35.254-3.24l1.182 0.182c-14.598 92.48-93.682 162.378-189.116 162.496h-0.012c-95.482-0.126-174.586-70.084-188.988-161.538l-0.142-1.084c-10.452 2.024-22.472 3.182-34.762 3.182-105.752 0-191.48-85.728-191.48-191.482 0-18.868 2.73-37.098 7.814-54.322l-0.344 1.356c-61.652-32.334-102.988-95.89-102.988-169.1 0-0.248 0-0.496 0-0.742v0.038c0.106-105.604 85.688-191.184 191.282-191.292h212.35l-60.826-259.020h336.158l-60.764 259.020h212.372c105.604 0.106 191.184 85.688 191.292 191.282v0.010c0 0.168 0 0.366 0 0.566 0 43.11-14.384 82.86-38.612 114.714l0.34-0.466z" />
<glyph unicode="&#xe947;" glyph-name="tree-needleleaf" horiz-adv-x="936" d="M551.4-1.198h-164.206l44.012 129.19h76.216l43.98-129.19zM297.38 390.082h-115.034l185.194 249.88h-81.038l182.966 221.446 183.030-221.446h-81.996l185.996-249.848h-100.198l149.774-199.318h-670.212l161.488 199.318zM931.802 127.992l-149.774 199.318h99.49l-185.996 249.848h90.34l-316.36 382.842-316.33-382.842h89.66l-185.194-249.848h108.050l-161.488-199.318h360.682l-65.428-191.992h339.664l-65.368 191.992h358.054z" />
<glyph unicode="&#xe948;" glyph-name="user" horiz-adv-x="896" d="M448.38 888.284c106.248-0.126 192.346-86.222 192.47-192.458v-0.012c-0.126-106.248-86.222-192.344-192.458-192.47h-0.012c-106.248 0.126-192.344 86.224-192.47 192.458v0.012c0.126 106.248 86.222 192.344 192.458 192.47h0.012zM448.38 439.208c141.496 0 256.606 115.11 256.606 256.606s-115.11 256.606-256.606 256.606c-141.466 0-256.606-115.11-256.606-256.606s115.142-256.606 256.606-256.606zM831.932 7.682h-767.798v126.158c0.126 106.248 86.224 192.346 192.458 192.47h0.012c43.966 0 82.758-18.622 83.138-18.812 4.482-2.208 48.166-22.914 108.86-22.914 0.094 0 0.202 0 0.312 0 37.986 0 74.096 8.028 106.73 22.476l-1.684-0.666 1.514 0.726c0.38 0.188 39.928 19.19 83.956 19.19 106.234-0.144 192.312-86.234 192.438-192.458v-126.136zM639.398 390.446c-55.928 0-104.032-21.874-111.512-25.44-23.31-10.294-50.492-16.286-79.076-16.286-0.084 0-0.17 0-0.254 0h0.012c-46.714 0-80.044 16.096-80.486 16.286-2.084 1.042-52.080 25.44-111.48 25.44-141.496 0-256.606-115.11-256.606-256.606v-190.26h896.006v190.26c0 141.496-115.11 256.606-256.606 256.606z" />
<glyph unicode="&#xe949;" glyph-name="warning-triangle" horiz-adv-x="1112" d="M1022.472 14.452h-932.942c-15.21 0.018-27.536 12.342-27.552 27.552v0.002c0 4.698 1.128 8.33 7.294 19.284l449.872 787.816c8.056 16.142 23.008 32.436 38.174 32.436 15.408 0 28.99-16.63 36.616-32.222l0.458-0.916 448.408-778.722c5.492-10.038 7.262-16.784 7.262-27.706-0.018-15.212-12.344-27.538-27.552-27.552h-0.002zM1096.988 99.802l-447.858 777.746c-20.536 41.346-54.802 65.972-91.818 65.972-36.922 0-72.624-25.234-93.222-65.912l-448.742-785.74c-7.78-13.762-15.35-28.99-15.35-49.86 0.070-49.418 40.112-89.46 89.522-89.528h932.948c49.418 0.070 89.46 40.11 89.53 89.524v0.006c0 21.604-4.364 38.386-15.044 57.826zM601.65 615.248h-91.33l14.646-369.070h62.004zM556 195.402c-0.384 0.010-0.834 0.014-1.286 0.014-29.93 0-54.192-24.264-54.192-54.192s24.264-54.192 54.192-54.192c0.452 0 0.904 0.004 1.352 0.016h-0.068c29.372 0.72 52.908 24.7 52.908 54.178s-23.536 53.458-52.842 54.176h-0.068z" />
</font>
</defs>
</svg>
